<svg width="80" height="30" viewBox="0 0 80 30" fill="none" xmlns="http://www.w3.org/2000/svg">
<g clip-path="url(#clip0_505_32625)">
<rect x="0.5" width="79" height="30" rx="15" fill="#027CEC"/>
<path d="M30.7852 17.3955C30.7852 17.2178 30.7578 17.0583 30.7031 16.917C30.653 16.7712 30.5573 16.639 30.416 16.5205C30.2747 16.3975 30.0765 16.2767 29.8213 16.1582C29.5661 16.0397 29.2357 15.9167 28.8301 15.7891C28.3789 15.6432 27.9505 15.4792 27.5449 15.2969C27.1439 15.1146 26.7884 14.9027 26.4785 14.6611C26.1732 14.415 25.9316 14.1302 25.7539 13.8066C25.5807 13.4831 25.4941 13.1071 25.4941 12.6787C25.4941 12.264 25.5853 11.888 25.7676 11.5508C25.9499 11.209 26.2051 10.9173 26.5332 10.6758C26.8613 10.4297 27.2487 10.2406 27.6953 10.1084C28.1465 9.97624 28.641 9.91016 29.1787 9.91016C29.9124 9.91016 30.5527 10.0423 31.0996 10.3066C31.6465 10.571 32.0703 10.9333 32.3711 11.3936C32.6764 11.8538 32.8291 12.3802 32.8291 12.9727H30.792C30.792 12.681 30.7305 12.4258 30.6074 12.207C30.4889 11.9837 30.3066 11.8083 30.0605 11.6807C29.819 11.5531 29.5137 11.4893 29.1445 11.4893C28.7891 11.4893 28.4928 11.5439 28.2559 11.6533C28.0189 11.7581 27.8411 11.9017 27.7227 12.084C27.6042 12.2617 27.5449 12.4622 27.5449 12.6855C27.5449 12.8542 27.5859 13.0068 27.668 13.1436C27.7546 13.2803 27.8822 13.4079 28.0508 13.5264C28.2194 13.6449 28.4268 13.7565 28.6729 13.8613C28.9189 13.9661 29.2038 14.0687 29.5273 14.1689C30.0697 14.333 30.5459 14.5176 30.9561 14.7227C31.3708 14.9277 31.7171 15.1579 31.9951 15.4131C32.2731 15.6683 32.4827 15.9577 32.624 16.2812C32.7653 16.6048 32.8359 16.9717 32.8359 17.3818C32.8359 17.8148 32.7516 18.2021 32.583 18.5439C32.4144 18.8857 32.1706 19.1751 31.8516 19.4121C31.5326 19.6491 31.152 19.8291 30.71 19.9521C30.2679 20.0752 29.7734 20.1367 29.2266 20.1367C28.7344 20.1367 28.249 20.0729 27.7705 19.9453C27.292 19.8132 26.8568 19.6149 26.4648 19.3506C26.0775 19.0863 25.7676 18.749 25.5352 18.3389C25.3027 17.9287 25.1865 17.4434 25.1865 16.8828H27.2441C27.2441 17.1927 27.292 17.4548 27.3877 17.6689C27.4834 17.8831 27.6178 18.0563 27.791 18.1885C27.9688 18.3206 28.1784 18.4163 28.4199 18.4756C28.666 18.5348 28.9349 18.5645 29.2266 18.5645C29.582 18.5645 29.8737 18.5143 30.1016 18.4141C30.334 18.3138 30.5049 18.1748 30.6143 17.9971C30.7282 17.8193 30.7852 17.6188 30.7852 17.3955ZM38.0996 18.332V15.0371C38.0996 14.8001 38.0609 14.5973 37.9834 14.4287C37.9059 14.2555 37.7852 14.1211 37.6211 14.0254C37.4616 13.9297 37.2542 13.8818 36.999 13.8818C36.7803 13.8818 36.5911 13.9206 36.4316 13.998C36.2721 14.071 36.1491 14.1781 36.0625 14.3193C35.9759 14.4561 35.9326 14.6178 35.9326 14.8047H33.9639C33.9639 14.4902 34.0368 14.1917 34.1826 13.9092C34.3285 13.6266 34.5404 13.3783 34.8184 13.1641C35.0964 12.9453 35.4268 12.7744 35.8096 12.6514C36.1969 12.5283 36.6299 12.4668 37.1084 12.4668C37.6826 12.4668 38.193 12.5625 38.6396 12.7539C39.0863 12.9453 39.4372 13.2324 39.6924 13.6152C39.9521 13.998 40.082 14.4766 40.082 15.0508V18.2158C40.082 18.6214 40.1071 18.9541 40.1572 19.2139C40.2074 19.4691 40.2803 19.6924 40.376 19.8838V20H38.3867C38.291 19.7995 38.2181 19.5488 38.168 19.248C38.1224 18.9427 38.0996 18.6374 38.0996 18.332ZM38.3594 15.4951L38.373 16.6094H37.2725C37.0127 16.6094 36.7871 16.639 36.5957 16.6982C36.4043 16.7575 36.2471 16.8418 36.124 16.9512C36.001 17.056 35.9098 17.179 35.8506 17.3203C35.7959 17.4616 35.7686 17.6165 35.7686 17.7852C35.7686 17.9538 35.8073 18.1064 35.8848 18.2432C35.9622 18.3753 36.0739 18.4801 36.2197 18.5576C36.3656 18.6305 36.5365 18.667 36.7324 18.667C37.0286 18.667 37.2861 18.6077 37.5049 18.4893C37.7236 18.3708 37.8923 18.2249 38.0107 18.0518C38.1338 17.8786 38.1976 17.7145 38.2021 17.5596L38.7217 18.3936C38.6488 18.5804 38.5485 18.7741 38.4209 18.9746C38.2979 19.1751 38.1406 19.3643 37.9492 19.542C37.7578 19.7152 37.5277 19.8587 37.2588 19.9727C36.9899 20.082 36.6709 20.1367 36.3018 20.1367C35.8324 20.1367 35.4062 20.0433 35.0234 19.8564C34.6452 19.665 34.3444 19.403 34.1211 19.0703C33.9023 18.7331 33.793 18.3503 33.793 17.9219C33.793 17.5345 33.8659 17.1904 34.0117 16.8896C34.1576 16.5889 34.3717 16.3359 34.6543 16.1309C34.9414 15.9212 35.2992 15.764 35.7275 15.6592C36.1559 15.5498 36.6527 15.4951 37.2178 15.4951H38.3594ZM44.0059 18.5645L45.6465 12.6035H47.7041L45.209 20H43.9648L44.0059 18.5645ZM42.8779 12.6035L44.5254 18.5713L44.5596 20H43.3086L40.8135 12.6035H42.8779ZM51.8945 20.1367C51.3203 20.1367 50.8053 20.0456 50.3496 19.8633C49.8939 19.6764 49.5065 19.4189 49.1875 19.0908C48.873 18.7627 48.6315 18.3822 48.4629 17.9492C48.2943 17.5117 48.21 17.0469 48.21 16.5547V16.2812C48.21 15.7207 48.2897 15.208 48.4492 14.7432C48.6087 14.2783 48.8366 13.875 49.1328 13.5332C49.4336 13.1914 49.7982 12.9294 50.2266 12.7471C50.6549 12.5602 51.138 12.4668 51.6758 12.4668C52.1999 12.4668 52.6647 12.5534 53.0703 12.7266C53.4759 12.8997 53.8154 13.1458 54.0889 13.4648C54.3669 13.7839 54.5765 14.1667 54.7178 14.6133C54.859 15.0553 54.9297 15.5475 54.9297 16.0898V16.9102H49.0508V15.5977H52.9951V15.4473C52.9951 15.1738 52.945 14.93 52.8447 14.7158C52.749 14.4971 52.6032 14.3239 52.4072 14.1963C52.2113 14.0687 51.9606 14.0049 51.6553 14.0049C51.3955 14.0049 51.1722 14.0618 50.9854 14.1758C50.7985 14.2897 50.6458 14.4492 50.5273 14.6543C50.4134 14.8594 50.3268 15.1009 50.2676 15.3789C50.2129 15.6523 50.1855 15.9531 50.1855 16.2812V16.5547C50.1855 16.8509 50.2266 17.1243 50.3086 17.375C50.3952 17.6257 50.516 17.8421 50.6709 18.0244C50.8304 18.2067 51.0218 18.348 51.2451 18.4482C51.473 18.5485 51.7305 18.5986 52.0176 18.5986C52.373 18.5986 52.7035 18.5303 53.0088 18.3936C53.3187 18.2523 53.5853 18.0404 53.8086 17.7578L54.7656 18.7969C54.6107 19.0202 54.3988 19.2344 54.1299 19.4395C53.8656 19.6445 53.5465 19.8132 53.1729 19.9453C52.7992 20.0729 52.373 20.1367 51.8945 20.1367Z" fill="white"/>
</g>
<defs>
<clipPath id="clip0_505_32625">
<rect x="0.5" width="79" height="30" rx="15" fill="white"/>
</clipPath>
</defs>
</svg>
