<svg width="90" height="30" viewBox="0 0 90 30" fill="none" xmlns="http://www.w3.org/2000/svg">
<g clip-path="url(#clip0_505_32635)">
<rect x="0.5" width="89" height="30" rx="15" fill="#027CEC"/>
<path d="M28.8262 20H26.6592L26.6729 18.4004H28.8262C29.3639 18.4004 29.8174 18.2796 30.1865 18.0381C30.5557 17.792 30.8337 17.4342 31.0205 16.9648C31.2119 16.4954 31.3076 15.9281 31.3076 15.2627V14.7773C31.3076 14.2669 31.2529 13.818 31.1436 13.4307C31.0387 13.0433 30.8815 12.7174 30.6719 12.4531C30.4622 12.1888 30.2048 11.9906 29.8994 11.8584C29.5941 11.7217 29.2432 11.6533 28.8467 11.6533H26.6182V10.0469H28.8467C29.512 10.0469 30.1204 10.1608 30.6719 10.3887C31.2279 10.612 31.7087 10.9333 32.1143 11.3525C32.5199 11.7718 32.832 12.2731 33.0508 12.8564C33.2741 13.4352 33.3857 14.0801 33.3857 14.791V15.2627C33.3857 15.9691 33.2741 16.6139 33.0508 17.1973C32.832 17.7806 32.5199 18.2819 32.1143 18.7012C31.7132 19.1159 31.2324 19.4372 30.6719 19.665C30.1159 19.8883 29.5007 20 28.8262 20ZM27.8213 10.0469V20H25.7705V10.0469H27.8213ZM38.1572 20.1367C37.583 20.1367 37.068 20.0456 36.6123 19.8633C36.1566 19.6764 35.7692 19.4189 35.4502 19.0908C35.1357 18.7627 34.8942 18.3822 34.7256 17.9492C34.557 17.5117 34.4727 17.0469 34.4727 16.5547V16.2812C34.4727 15.7207 34.5524 15.208 34.7119 14.7432C34.8714 14.2783 35.0993 13.875 35.3955 13.5332C35.6963 13.1914 36.0609 12.9294 36.4893 12.7471C36.9176 12.5602 37.4007 12.4668 37.9385 12.4668C38.4626 12.4668 38.9274 12.5534 39.333 12.7266C39.7386 12.8997 40.0781 13.1458 40.3516 13.4648C40.6296 13.7839 40.8392 14.1667 40.9805 14.6133C41.1217 15.0553 41.1924 15.5475 41.1924 16.0898V16.9102H35.3135V15.5977H39.2578V15.4473C39.2578 15.1738 39.2077 14.93 39.1074 14.7158C39.0117 14.4971 38.8659 14.3239 38.6699 14.1963C38.474 14.0687 38.2233 14.0049 37.918 14.0049C37.6582 14.0049 37.4349 14.0618 37.248 14.1758C37.0612 14.2897 36.9085 14.4492 36.79 14.6543C36.6761 14.8594 36.5895 15.1009 36.5303 15.3789C36.4756 15.6523 36.4482 15.9531 36.4482 16.2812V16.5547C36.4482 16.8509 36.4893 17.1243 36.5713 17.375C36.6579 17.6257 36.7786 17.8421 36.9336 18.0244C37.0931 18.2067 37.2845 18.348 37.5078 18.4482C37.7357 18.5485 37.9932 18.5986 38.2803 18.5986C38.6357 18.5986 38.9661 18.5303 39.2715 18.3936C39.5814 18.2523 39.848 18.0404 40.0713 17.7578L41.0283 18.7969C40.8734 19.0202 40.6615 19.2344 40.3926 19.4395C40.1283 19.6445 39.8092 19.8132 39.4355 19.9453C39.0618 20.0729 38.6357 20.1367 38.1572 20.1367ZM44.3916 9.5V20H42.416V9.5H44.3916ZM49.4229 20.1367C48.8486 20.1367 48.3337 20.0456 47.8779 19.8633C47.4222 19.6764 47.0348 19.4189 46.7158 19.0908C46.4014 18.7627 46.1598 18.3822 45.9912 17.9492C45.8226 17.5117 45.7383 17.0469 45.7383 16.5547V16.2812C45.7383 15.7207 45.818 15.208 45.9775 14.7432C46.137 14.2783 46.3649 13.875 46.6611 13.5332C46.9619 13.1914 47.3265 12.9294 47.7549 12.7471C48.1833 12.5602 48.6663 12.4668 49.2041 12.4668C49.7282 12.4668 50.193 12.5534 50.5986 12.7266C51.0042 12.8997 51.3438 13.1458 51.6172 13.4648C51.8952 13.7839 52.1048 14.1667 52.2461 14.6133C52.3874 15.0553 52.458 15.5475 52.458 16.0898V16.9102H46.5791V15.5977H50.5234V15.4473C50.5234 15.1738 50.4733 14.93 50.373 14.7158C50.2773 14.4971 50.1315 14.3239 49.9355 14.1963C49.7396 14.0687 49.4889 14.0049 49.1836 14.0049C48.9238 14.0049 48.7005 14.0618 48.5137 14.1758C48.3268 14.2897 48.1742 14.4492 48.0557 14.6543C47.9417 14.8594 47.8551 15.1009 47.7959 15.3789C47.7412 15.6523 47.7139 15.9531 47.7139 16.2812V16.5547C47.7139 16.8509 47.7549 17.1243 47.8369 17.375C47.9235 17.6257 48.0443 17.8421 48.1992 18.0244C48.3587 18.2067 48.5501 18.348 48.7734 18.4482C49.0013 18.5485 49.2588 18.5986 49.5459 18.5986C49.9014 18.5986 50.2318 18.5303 50.5371 18.3936C50.847 18.2523 51.1136 18.0404 51.3369 17.7578L52.2939 18.7969C52.139 19.0202 51.9271 19.2344 51.6582 19.4395C51.3939 19.6445 51.0749 19.8132 50.7012 19.9453C50.3275 20.0729 49.9014 20.1367 49.4229 20.1367ZM57.2021 12.6035V13.998H52.8955V12.6035H57.2021ZM53.9619 10.7783H55.9307V17.7715C55.9307 17.9857 55.958 18.1497 56.0127 18.2637C56.0719 18.3776 56.1585 18.4574 56.2725 18.5029C56.3864 18.5439 56.5299 18.5645 56.7031 18.5645C56.8262 18.5645 56.9355 18.5599 57.0312 18.5508C57.1315 18.5371 57.2158 18.5234 57.2842 18.5098L57.291 19.959C57.1224 20.0137 56.9401 20.057 56.7441 20.0889C56.5482 20.1208 56.3317 20.1367 56.0947 20.1367C55.6618 20.1367 55.2835 20.0661 54.96 19.9248C54.641 19.779 54.3949 19.5465 54.2217 19.2275C54.0485 18.9085 53.9619 18.4893 53.9619 17.9697V10.7783ZM61.7275 20.1367C61.1533 20.1367 60.6383 20.0456 60.1826 19.8633C59.7269 19.6764 59.3395 19.4189 59.0205 19.0908C58.7061 18.7627 58.4645 18.3822 58.2959 17.9492C58.1273 17.5117 58.043 17.0469 58.043 16.5547V16.2812C58.043 15.7207 58.1227 15.208 58.2822 14.7432C58.4417 14.2783 58.6696 13.875 58.9658 13.5332C59.2666 13.1914 59.6312 12.9294 60.0596 12.7471C60.488 12.5602 60.971 12.4668 61.5088 12.4668C62.0329 12.4668 62.4977 12.5534 62.9033 12.7266C63.3089 12.8997 63.6484 13.1458 63.9219 13.4648C64.1999 13.7839 64.4095 14.1667 64.5508 14.6133C64.6921 15.0553 64.7627 15.5475 64.7627 16.0898V16.9102H58.8838V15.5977H62.8281V15.4473C62.8281 15.1738 62.778 14.93 62.6777 14.7158C62.582 14.4971 62.4362 14.3239 62.2402 14.1963C62.0443 14.0687 61.7936 14.0049 61.4883 14.0049C61.2285 14.0049 61.0052 14.0618 60.8184 14.1758C60.6315 14.2897 60.4788 14.4492 60.3604 14.6543C60.2464 14.8594 60.1598 15.1009 60.1006 15.3789C60.0459 15.6523 60.0186 15.9531 60.0186 16.2812V16.5547C60.0186 16.8509 60.0596 17.1243 60.1416 17.375C60.2282 17.6257 60.349 17.8421 60.5039 18.0244C60.6634 18.2067 60.8548 18.348 61.0781 18.4482C61.306 18.5485 61.5635 18.5986 61.8506 18.5986C62.2061 18.5986 62.5365 18.5303 62.8418 18.3936C63.1517 18.2523 63.4183 18.0404 63.6416 17.7578L64.5986 18.7969C64.4437 19.0202 64.2318 19.2344 63.9629 19.4395C63.6986 19.6445 63.3796 19.8132 63.0059 19.9453C62.6322 20.0729 62.2061 20.1367 61.7275 20.1367Z" fill="white"/>
</g>
<defs>
<clipPath id="clip0_505_32635">
<rect x="0.5" width="89" height="30" rx="15" fill="white"/>
</clipPath>
</defs>
</svg>
