<svg width="356" height="24" viewBox="0 0 356 24" fill="none" xmlns="http://www.w3.org/2000/svg">
<g clip-path="url(#clip0_505_32681)">
<rect width="356" height="24" rx="12" fill="#027CEC"/>
<path d="M161.706 17H159.58L159.594 15.6396H161.706C162.321 15.6396 162.836 15.5052 163.251 15.2363C163.67 14.9674 163.985 14.5824 164.194 14.0811C164.409 13.5798 164.516 12.9827 164.516 12.29V11.75C164.516 11.2122 164.454 10.736 164.331 10.3213C164.213 9.90658 164.035 9.55794 163.798 9.27539C163.565 8.99284 163.278 8.77865 162.937 8.63281C162.599 8.48698 162.21 8.41406 161.768 8.41406H159.539V7.04688H161.768C162.428 7.04688 163.032 7.15853 163.579 7.38184C164.126 7.60059 164.598 7.91732 164.994 8.33203C165.395 8.74674 165.703 9.24349 165.917 9.82227C166.131 10.401 166.238 11.0482 166.238 11.7637V12.29C166.238 13.0055 166.131 13.6527 165.917 14.2314C165.703 14.8102 165.395 15.307 164.994 15.7217C164.593 16.1318 164.115 16.4486 163.559 16.6719C163.007 16.8906 162.39 17 161.706 17ZM160.53 7.04688V17H158.814V7.04688H160.53ZM171.158 17.1367C170.611 17.1367 170.116 17.0479 169.674 16.8701C169.237 16.6878 168.863 16.4349 168.553 16.1113C168.248 15.7878 168.013 15.4072 167.849 14.9697C167.685 14.5322 167.603 14.0605 167.603 13.5547V13.2812C167.603 12.7025 167.687 12.1784 167.856 11.709C168.024 11.2396 168.259 10.8385 168.56 10.5059C168.861 10.1686 169.216 9.91113 169.626 9.7334C170.037 9.55566 170.481 9.4668 170.959 9.4668C171.488 9.4668 171.951 9.55566 172.347 9.7334C172.744 9.91113 173.072 10.1618 173.331 10.4854C173.596 10.8044 173.792 11.1849 173.919 11.627C174.051 12.069 174.118 12.5566 174.118 13.0898V13.7939H168.403V12.6113H172.491V12.4814C172.482 12.1852 172.422 11.9072 172.313 11.6475C172.208 11.3877 172.046 11.1781 171.828 11.0186C171.609 10.859 171.317 10.7793 170.953 10.7793C170.679 10.7793 170.435 10.8385 170.221 10.957C170.011 11.071 169.836 11.2373 169.695 11.4561C169.553 11.6748 169.444 11.9391 169.367 12.249C169.294 12.5544 169.257 12.8984 169.257 13.2812V13.5547C169.257 13.8783 169.301 14.179 169.387 14.457C169.478 14.7305 169.61 14.9697 169.784 15.1748C169.957 15.3799 170.166 15.5417 170.413 15.6602C170.659 15.7741 170.939 15.8311 171.253 15.8311C171.65 15.8311 172.003 15.7513 172.313 15.5918C172.623 15.4323 172.892 15.2067 173.12 14.915L173.988 15.7559C173.828 15.9883 173.621 16.2116 173.366 16.4258C173.11 16.6354 172.798 16.8063 172.429 16.9385C172.065 17.0706 171.641 17.1367 171.158 17.1367ZM177.266 6.5V17H175.612V6.5H177.266ZM182.432 17.1367C181.885 17.1367 181.39 17.0479 180.948 16.8701C180.511 16.6878 180.137 16.4349 179.827 16.1113C179.522 15.7878 179.287 15.4072 179.123 14.9697C178.959 14.5322 178.877 14.0605 178.877 13.5547V13.2812C178.877 12.7025 178.961 12.1784 179.13 11.709C179.299 11.2396 179.533 10.8385 179.834 10.5059C180.135 10.1686 180.49 9.91113 180.901 9.7334C181.311 9.55566 181.755 9.4668 182.234 9.4668C182.762 9.4668 183.225 9.55566 183.621 9.7334C184.018 9.91113 184.346 10.1618 184.606 10.4854C184.87 10.8044 185.066 11.1849 185.194 11.627C185.326 12.069 185.392 12.5566 185.392 13.0898V13.7939H179.677V12.6113H183.765V12.4814C183.756 12.1852 183.696 11.9072 183.587 11.6475C183.482 11.3877 183.321 11.1781 183.102 11.0186C182.883 10.859 182.591 10.7793 182.227 10.7793C181.953 10.7793 181.71 10.8385 181.495 10.957C181.286 11.071 181.11 11.2373 180.969 11.4561C180.828 11.6748 180.718 11.9391 180.641 12.249C180.568 12.5544 180.531 12.8984 180.531 13.2812V13.5547C180.531 13.8783 180.575 14.179 180.661 14.457C180.752 14.7305 180.885 14.9697 181.058 15.1748C181.231 15.3799 181.441 15.5417 181.687 15.6602C181.933 15.7741 182.213 15.8311 182.528 15.8311C182.924 15.8311 183.277 15.7513 183.587 15.5918C183.897 15.4323 184.166 15.2067 184.394 14.915L185.262 15.7559C185.102 15.9883 184.895 16.2116 184.64 16.4258C184.385 16.6354 184.072 16.8063 183.703 16.9385C183.339 17.0706 182.915 17.1367 182.432 17.1367ZM190.168 9.60352V10.8066H185.998V9.60352H190.168ZM187.201 7.79199H188.848V14.9561C188.848 15.1839 188.88 15.3594 188.944 15.4824C189.012 15.6009 189.106 15.6807 189.224 15.7217C189.343 15.7627 189.482 15.7832 189.641 15.7832C189.755 15.7832 189.865 15.7764 189.969 15.7627C190.074 15.749 190.158 15.7354 190.222 15.7217L190.229 16.9795C190.092 17.0205 189.933 17.057 189.751 17.0889C189.573 17.1208 189.368 17.1367 189.135 17.1367C188.757 17.1367 188.422 17.0706 188.13 16.9385C187.839 16.8018 187.611 16.5807 187.447 16.2754C187.283 15.9701 187.201 15.5645 187.201 15.0586V7.79199ZM194.8 17.1367C194.253 17.1367 193.758 17.0479 193.316 16.8701C192.879 16.6878 192.505 16.4349 192.195 16.1113C191.89 15.7878 191.655 15.4072 191.491 14.9697C191.327 14.5322 191.245 14.0605 191.245 13.5547V13.2812C191.245 12.7025 191.329 12.1784 191.498 11.709C191.667 11.2396 191.901 10.8385 192.202 10.5059C192.503 10.1686 192.858 9.91113 193.269 9.7334C193.679 9.55566 194.123 9.4668 194.602 9.4668C195.13 9.4668 195.593 9.55566 195.989 9.7334C196.386 9.91113 196.714 10.1618 196.974 10.4854C197.238 10.8044 197.434 11.1849 197.562 11.627C197.694 12.069 197.76 12.5566 197.76 13.0898V13.7939H192.045V12.6113H196.133V12.4814C196.124 12.1852 196.064 11.9072 195.955 11.6475C195.85 11.3877 195.688 11.1781 195.47 11.0186C195.251 10.859 194.959 10.7793 194.595 10.7793C194.321 10.7793 194.077 10.8385 193.863 10.957C193.654 11.071 193.478 11.2373 193.337 11.4561C193.196 11.6748 193.086 11.9391 193.009 12.249C192.936 12.5544 192.899 12.8984 192.899 13.2812V13.5547C192.899 13.8783 192.943 14.179 193.029 14.457C193.12 14.7305 193.253 14.9697 193.426 15.1748C193.599 15.3799 193.809 15.5417 194.055 15.6602C194.301 15.7741 194.581 15.8311 194.896 15.8311C195.292 15.8311 195.645 15.7513 195.955 15.5918C196.265 15.4323 196.534 15.2067 196.762 14.915L197.63 15.7559C197.47 15.9883 197.263 16.2116 197.008 16.4258C196.753 16.6354 196.44 16.8063 196.071 16.9385C195.707 17.0706 195.283 17.1367 194.8 17.1367Z" fill="white"/>
</g>
<defs>
<clipPath id="clip0_505_32681">
<rect width="356" height="24" rx="12" fill="white"/>
</clipPath>
</defs>
</svg>
