<svg width="84" height="30" viewBox="0 0 84 30" fill="none" xmlns="http://www.w3.org/2000/svg">
<g clip-path="url(#clip0_505_32676)">
<path d="M29.0168 11.373L26.0432 20H24.2453L27.9914 10.0469H29.1398L29.0168 11.373ZM31.5051 20L28.5246 11.373L28.3947 10.0469H29.55L33.3098 20H31.5051ZM31.3615 16.3086V17.6689H25.9475V16.3086H31.3615ZM35.8912 14.0254V22.8438H34.2437V12.6035H35.7613L35.8912 14.0254ZM40.7105 16.2334V16.377C40.7105 16.9147 40.6467 17.4137 40.5191 17.874C40.3961 18.3298 40.2115 18.7285 39.9654 19.0703C39.7239 19.4076 39.4254 19.6696 39.0699 19.8564C38.7145 20.0433 38.3043 20.1367 37.8395 20.1367C37.3792 20.1367 36.9758 20.0524 36.6295 19.8838C36.2877 19.7106 35.9983 19.4668 35.7613 19.1523C35.5243 18.8379 35.3329 18.4688 35.1871 18.0449C35.0458 17.6165 34.9456 17.1471 34.8863 16.6367V16.083C34.9456 15.5407 35.0458 15.0485 35.1871 14.6064C35.3329 14.1644 35.5243 13.7839 35.7613 13.4648C35.9983 13.1458 36.2877 12.8997 36.6295 12.7266C36.9713 12.5534 37.3701 12.4668 37.8258 12.4668C38.2906 12.4668 38.7031 12.5579 39.0631 12.7402C39.4231 12.918 39.7262 13.1732 39.9723 13.5059C40.2184 13.834 40.4029 14.2305 40.526 14.6953C40.649 15.1556 40.7105 15.6683 40.7105 16.2334ZM39.0631 16.377V16.2334C39.0631 15.8916 39.0312 15.5749 38.9674 15.2832C38.9036 14.987 38.8033 14.7272 38.6666 14.5039C38.5299 14.2806 38.3544 14.1074 38.1402 13.9844C37.9306 13.8568 37.6777 13.793 37.3814 13.793C37.0898 13.793 36.8391 13.8431 36.6295 13.9434C36.4199 14.0391 36.2444 14.1735 36.1031 14.3467C35.9618 14.5199 35.8525 14.7227 35.775 14.9551C35.6975 15.1829 35.6428 15.4313 35.6109 15.7002V17.0264C35.6656 17.3545 35.759 17.6553 35.8912 17.9287C36.0234 18.2021 36.2102 18.4209 36.4518 18.585C36.6979 18.7445 37.0123 18.8242 37.3951 18.8242C37.6913 18.8242 37.9443 18.7604 38.1539 18.6328C38.3635 18.5052 38.5344 18.3298 38.6666 18.1064C38.8033 17.8786 38.9036 17.6165 38.9674 17.3203C39.0312 17.0241 39.0631 16.7096 39.0631 16.377ZM43.8662 14.0254V22.8438H42.2188V12.6035H43.7363L43.8662 14.0254ZM48.6855 16.2334V16.377C48.6855 16.9147 48.6217 17.4137 48.4941 17.874C48.3711 18.3298 48.1865 18.7285 47.9404 19.0703C47.6989 19.4076 47.4004 19.6696 47.0449 19.8564C46.6895 20.0433 46.2793 20.1367 45.8145 20.1367C45.3542 20.1367 44.9508 20.0524 44.6045 19.8838C44.2627 19.7106 43.9733 19.4668 43.7363 19.1523C43.4993 18.8379 43.3079 18.4688 43.1621 18.0449C43.0208 17.6165 42.9206 17.1471 42.8613 16.6367V16.083C42.9206 15.5407 43.0208 15.0485 43.1621 14.6064C43.3079 14.1644 43.4993 13.7839 43.7363 13.4648C43.9733 13.1458 44.2627 12.8997 44.6045 12.7266C44.9463 12.5534 45.3451 12.4668 45.8008 12.4668C46.2656 12.4668 46.6781 12.5579 47.0381 12.7402C47.3981 12.918 47.7012 13.1732 47.9473 13.5059C48.1934 13.834 48.3779 14.2305 48.501 14.6953C48.624 15.1556 48.6855 15.6683 48.6855 16.2334ZM47.0381 16.377V16.2334C47.0381 15.8916 47.0062 15.5749 46.9424 15.2832C46.8786 14.987 46.7783 14.7272 46.6416 14.5039C46.5049 14.2806 46.3294 14.1074 46.1152 13.9844C45.9056 13.8568 45.6527 13.793 45.3564 13.793C45.0648 13.793 44.8141 13.8431 44.6045 13.9434C44.3949 14.0391 44.2194 14.1735 44.0781 14.3467C43.9368 14.5199 43.8275 14.7227 43.75 14.9551C43.6725 15.1829 43.6178 15.4313 43.5859 15.7002V17.0264C43.6406 17.3545 43.734 17.6553 43.8662 17.9287C43.9984 18.2021 44.1852 18.4209 44.4268 18.585C44.6729 18.7445 44.9873 18.8242 45.3701 18.8242C45.6663 18.8242 45.9193 18.7604 46.1289 18.6328C46.3385 18.5052 46.5094 18.3298 46.6416 18.1064C46.7783 17.8786 46.8786 17.6165 46.9424 17.3203C47.0062 17.0241 47.0381 16.7096 47.0381 16.377ZM51.9506 9.5V20H50.2963V9.5H51.9506ZM56.0018 19.1934L58.0115 12.6035H59.7752L56.8084 21.1279C56.74 21.3102 56.6512 21.5085 56.5418 21.7227C56.4324 21.9368 56.2889 22.1396 56.1111 22.3311C55.938 22.527 55.7215 22.6842 55.4617 22.8027C55.202 22.9258 54.8875 22.9873 54.5184 22.9873C54.3725 22.9873 54.2312 22.9736 54.0945 22.9463C53.9624 22.9235 53.837 22.8984 53.7186 22.8711L53.7117 21.6133C53.7573 21.6178 53.812 21.6224 53.8758 21.627C53.9441 21.6315 53.9988 21.6338 54.0398 21.6338C54.3133 21.6338 54.5411 21.5996 54.7234 21.5312C54.9057 21.4674 55.0538 21.3626 55.1678 21.2168C55.2863 21.071 55.3865 20.875 55.4686 20.6289L56.0018 19.1934ZM54.867 12.6035L56.6238 18.1406L56.9178 19.877L55.7762 20.1709L53.0896 12.6035H54.867Z" fill="#027CEC"/>
</g>
<rect x="0.25" y="0.25" width="83.5" height="29.5" rx="14.75" stroke="#027CEC" stroke-width="0.5"/>
<defs>
<clipPath id="clip0_505_32676">
<rect width="84" height="30" rx="15" fill="white"/>
</clipPath>
</defs>
</svg>
