<svg width="130" height="42" viewBox="0 0 130 42" fill="none" xmlns="http://www.w3.org/2000/svg">
<rect x="1" y="1" width="128" height="40" rx="20" fill="#027CEC"/>
<rect x="1" y="1" width="128" height="40" rx="20" stroke="#C7CED6" stroke-width="0.5"/>
<path d="M25.25 21.75H20.75V20.25H25.25V15.75H26.75V20.25H31.25V21.75H26.75V26.25H25.25V21.75Z" fill="#FAFAFA"/>
<path d="M52.2262 16.0469V26H50.5104L46.0465 18.8701V26H44.3307V16.0469H46.0465L50.524 23.1904V16.0469H52.2262ZM57.4668 26.1367C56.9199 26.1367 56.4255 26.0479 55.9834 25.8701C55.5459 25.6878 55.1722 25.4349 54.8623 25.1113C54.557 24.7878 54.3223 24.4072 54.1582 23.9697C53.9941 23.5322 53.9121 23.0605 53.9121 22.5547V22.2812C53.9121 21.7025 53.9964 21.1784 54.165 20.709C54.3337 20.2396 54.5684 19.8385 54.8691 19.5059C55.1699 19.1686 55.5254 18.9111 55.9355 18.7334C56.3457 18.5557 56.79 18.4668 57.2686 18.4668C57.7972 18.4668 58.2598 18.5557 58.6562 18.7334C59.0527 18.9111 59.3809 19.1618 59.6406 19.4854C59.9049 19.8044 60.1009 20.1849 60.2285 20.627C60.3607 21.069 60.4268 21.5566 60.4268 22.0898V22.7939H54.7119V21.6113H58.7998V21.4814C58.7907 21.1852 58.7314 20.9072 58.6221 20.6475C58.5173 20.3877 58.3555 20.1781 58.1367 20.0186C57.918 19.859 57.6263 19.7793 57.2617 19.7793C56.9883 19.7793 56.7445 19.8385 56.5303 19.957C56.3206 20.071 56.1452 20.2373 56.0039 20.4561C55.8626 20.6748 55.7533 20.9391 55.6758 21.249C55.6029 21.5544 55.5664 21.8984 55.5664 22.2812V22.5547C55.5664 22.8783 55.6097 23.179 55.6963 23.457C55.7874 23.7305 55.9196 23.9697 56.0928 24.1748C56.266 24.3799 56.4756 24.5417 56.7217 24.6602C56.9678 24.7741 57.248 24.8311 57.5625 24.8311C57.959 24.8311 58.3122 24.7513 58.6221 24.5918C58.932 24.4323 59.2008 24.2067 59.4287 23.915L60.2969 24.7559C60.1374 24.9883 59.93 25.2116 59.6748 25.4258C59.4196 25.6354 59.1074 25.8063 58.7383 25.9385C58.3737 26.0706 57.9499 26.1367 57.4668 26.1367ZM63.8217 24.3594L65.5307 18.6035H66.5834L66.2963 20.3262L64.5736 26H63.6303L63.8217 24.3594ZM62.8168 18.6035L64.1498 24.3867L64.2592 26H63.2064L61.2035 18.6035H62.8168ZM68.183 24.3184L69.475 18.6035H71.0814L69.0854 26H68.0326L68.183 24.3184ZM66.7611 18.6035L68.4496 24.291L68.6615 26H67.7182L65.975 20.3193L65.6879 18.6035H66.7611ZM79.8195 16.0469V26H78.1174V16.0469H79.8195ZM82.9436 16.0469V17.4141H75.0207V16.0469H82.9436ZM87.4459 24.5166V20.9893C87.4459 20.7249 87.398 20.4971 87.3023 20.3057C87.2066 20.1143 87.0608 19.9661 86.8648 19.8613C86.6734 19.7565 86.4319 19.7041 86.1402 19.7041C85.8714 19.7041 85.6389 19.7497 85.443 19.8408C85.247 19.932 85.0943 20.055 84.985 20.21C84.8756 20.3649 84.8209 20.5404 84.8209 20.7363H83.1803C83.1803 20.4447 83.2509 20.1621 83.3922 19.8887C83.5335 19.6152 83.7385 19.3714 84.0074 19.1572C84.2763 18.943 84.5976 18.7744 84.9713 18.6514C85.345 18.5283 85.7643 18.4668 86.2291 18.4668C86.7851 18.4668 87.2773 18.5602 87.7057 18.7471C88.1386 18.9339 88.4781 19.2165 88.7242 19.5947C88.9749 19.9684 89.1002 20.4378 89.1002 21.0029V24.291C89.1002 24.6283 89.123 24.9313 89.1686 25.2002C89.2187 25.4645 89.2893 25.6947 89.3805 25.8906V26H87.692C87.6145 25.8223 87.553 25.5967 87.5074 25.3232C87.4664 25.0452 87.4459 24.7764 87.4459 24.5166ZM87.6852 21.502L87.6988 22.5205H86.5162C86.2109 22.5205 85.942 22.5501 85.7096 22.6094C85.4771 22.6641 85.2835 22.7461 85.1285 22.8555C84.9736 22.9648 84.8574 23.097 84.7799 23.252C84.7024 23.4069 84.6637 23.5824 84.6637 23.7783C84.6637 23.9743 84.7092 24.1543 84.8004 24.3184C84.8915 24.4779 85.0237 24.6032 85.1969 24.6943C85.3746 24.7855 85.5888 24.8311 85.8395 24.8311C86.1767 24.8311 86.4706 24.7627 86.7213 24.626C86.9765 24.4847 87.177 24.3138 87.3229 24.1133C87.4687 23.9082 87.5462 23.7145 87.5553 23.5322L88.0885 24.2637C88.0338 24.4505 87.9404 24.651 87.8082 24.8652C87.676 25.0794 87.5029 25.2845 87.2887 25.4805C87.079 25.6719 86.8261 25.8291 86.5299 25.9521C86.2382 26.0752 85.901 26.1367 85.5182 26.1367C85.0351 26.1367 84.6044 26.041 84.2262 25.8496C83.8479 25.6536 83.5517 25.3916 83.3375 25.0635C83.1233 24.7308 83.0162 24.3548 83.0162 23.9355C83.0162 23.5436 83.0891 23.1973 83.235 22.8965C83.3854 22.5911 83.6041 22.3359 83.8912 22.1309C84.1829 21.9258 84.5383 21.7708 84.9576 21.666C85.3769 21.5566 85.8554 21.502 86.3932 21.502H87.6852ZM95.0723 23.9971C95.0723 23.833 95.0312 23.6849 94.9492 23.5527C94.8672 23.416 94.71 23.293 94.4775 23.1836C94.2497 23.0742 93.9124 22.974 93.4658 22.8828C93.0739 22.7962 92.7139 22.6937 92.3857 22.5752C92.0622 22.4521 91.7842 22.304 91.5518 22.1309C91.3193 21.9577 91.1393 21.7526 91.0117 21.5156C90.8841 21.2786 90.8203 21.0052 90.8203 20.6953C90.8203 20.3945 90.8864 20.1097 91.0186 19.8408C91.1507 19.5719 91.3398 19.335 91.5859 19.1299C91.832 18.9248 92.1305 18.763 92.4814 18.6445C92.8369 18.526 93.2334 18.4668 93.6709 18.4668C94.2907 18.4668 94.8216 18.5716 95.2637 18.7812C95.7103 18.9863 96.0521 19.2666 96.2891 19.6221C96.526 19.973 96.6445 20.3695 96.6445 20.8115H94.9971C94.9971 20.6156 94.9469 20.4333 94.8467 20.2646C94.751 20.0915 94.6051 19.9525 94.4092 19.8477C94.2132 19.7383 93.9671 19.6836 93.6709 19.6836C93.3883 19.6836 93.1536 19.7292 92.9668 19.8203C92.7845 19.9069 92.6478 20.0208 92.5566 20.1621C92.4701 20.3034 92.4268 20.4583 92.4268 20.627C92.4268 20.75 92.4495 20.8617 92.4951 20.9619C92.5452 21.0576 92.6273 21.1465 92.7412 21.2285C92.8551 21.306 93.0101 21.3789 93.2061 21.4473C93.4066 21.5156 93.6572 21.5817 93.958 21.6455C94.5231 21.764 95.0085 21.9167 95.4141 22.1035C95.8242 22.2858 96.1387 22.5228 96.3574 22.8145C96.5762 23.1016 96.6855 23.4661 96.6855 23.9082C96.6855 24.2363 96.6149 24.5371 96.4736 24.8105C96.3369 25.0794 96.1364 25.3141 95.8721 25.5146C95.6077 25.7106 95.291 25.8633 94.9219 25.9727C94.5573 26.082 94.1471 26.1367 93.6914 26.1367C93.0215 26.1367 92.4541 26.0182 91.9893 25.7812C91.5244 25.5397 91.1712 25.2321 90.9297 24.8584C90.6927 24.4801 90.5742 24.0882 90.5742 23.6826H92.167C92.1852 23.988 92.2695 24.2318 92.4199 24.4141C92.5749 24.5918 92.7663 24.7217 92.9941 24.8037C93.2266 24.8812 93.4658 24.9199 93.7119 24.9199C94.0081 24.9199 94.2565 24.8812 94.457 24.8037C94.6576 24.7217 94.8102 24.6123 94.915 24.4756C95.0199 24.3343 95.0723 24.1748 95.0723 23.9971ZM99.8891 15.5V26H98.2348V15.5H99.8891ZM104.483 18.6035L101.263 22.1719L99.4994 23.9766L99.0687 22.582L100.402 20.9346L102.494 18.6035H104.483ZM102.849 26L100.45 22.5273L101.489 21.3721L104.756 26H102.849Z" fill="#FAFAFA"/>
</svg>
