<svg width="164" height="30" viewBox="0 0 164 30" fill="none" xmlns="http://www.w3.org/2000/svg">
<g clip-path="url(#clip0_505_32640)">
<rect x="0.5" width="163" height="30" rx="15" fill="#027CEC"/>
<path d="M26.499 10.0469H28.2354L30.792 17.3545L33.3486 10.0469H35.085L31.4893 20H30.0947L26.499 10.0469ZM25.5625 10.0469H27.292L27.6064 17.1699V20H25.5625V10.0469ZM34.292 10.0469H36.0283V20H33.9775V17.1699L34.292 10.0469ZM41.6953 18.332V15.0371C41.6953 14.8001 41.6566 14.5973 41.5791 14.4287C41.5016 14.2555 41.3809 14.1211 41.2168 14.0254C41.0573 13.9297 40.8499 13.8818 40.5947 13.8818C40.376 13.8818 40.1868 13.9206 40.0273 13.998C39.8678 14.071 39.7448 14.1781 39.6582 14.3193C39.5716 14.4561 39.5283 14.6178 39.5283 14.8047H37.5596C37.5596 14.4902 37.6325 14.1917 37.7783 13.9092C37.9242 13.6266 38.1361 13.3783 38.4141 13.1641C38.6921 12.9453 39.0225 12.7744 39.4053 12.6514C39.7926 12.5283 40.2256 12.4668 40.7041 12.4668C41.2783 12.4668 41.7887 12.5625 42.2354 12.7539C42.682 12.9453 43.0329 13.2324 43.2881 13.6152C43.5479 13.998 43.6777 14.4766 43.6777 15.0508V18.2158C43.6777 18.6214 43.7028 18.9541 43.7529 19.2139C43.8031 19.4691 43.876 19.6924 43.9717 19.8838V20H41.9824C41.8867 19.7995 41.8138 19.5488 41.7637 19.248C41.7181 18.9427 41.6953 18.6374 41.6953 18.332ZM41.9551 15.4951L41.9688 16.6094H40.8682C40.6084 16.6094 40.3828 16.639 40.1914 16.6982C40 16.7575 39.8428 16.8418 39.7197 16.9512C39.5967 17.056 39.5055 17.179 39.4463 17.3203C39.3916 17.4616 39.3643 17.6165 39.3643 17.7852C39.3643 17.9538 39.403 18.1064 39.4805 18.2432C39.5579 18.3753 39.6696 18.4801 39.8154 18.5576C39.9613 18.6305 40.1322 18.667 40.3281 18.667C40.6243 18.667 40.8818 18.6077 41.1006 18.4893C41.3193 18.3708 41.488 18.2249 41.6064 18.0518C41.7295 17.8786 41.7933 17.7145 41.7979 17.5596L42.3174 18.3936C42.2445 18.5804 42.1442 18.7741 42.0166 18.9746C41.8936 19.1751 41.7363 19.3643 41.5449 19.542C41.3535 19.7152 41.1234 19.8587 40.8545 19.9727C40.5856 20.082 40.2666 20.1367 39.8975 20.1367C39.4281 20.1367 39.002 20.0433 38.6191 19.8564C38.2409 19.665 37.9401 19.403 37.7168 19.0703C37.498 18.7331 37.3887 18.3503 37.3887 17.9219C37.3887 17.5345 37.4616 17.1904 37.6074 16.8896C37.7533 16.5889 37.9674 16.3359 38.25 16.1309C38.5371 15.9212 38.8949 15.764 39.3232 15.6592C39.7516 15.5498 40.2484 15.4951 40.8135 15.4951H41.9551ZM47.1641 14.2168V20H45.1953V12.6035H47.0479L47.1641 14.2168ZM49.3926 12.5557L49.3584 14.3809C49.2627 14.3672 49.1465 14.3558 49.0098 14.3467C48.8776 14.333 48.7568 14.3262 48.6475 14.3262C48.3695 14.3262 48.1279 14.3626 47.9229 14.4355C47.7223 14.5039 47.5537 14.6064 47.417 14.7432C47.2848 14.8799 47.1846 15.0462 47.1162 15.2422C47.0524 15.4382 47.016 15.6615 47.0068 15.9121L46.6104 15.7891C46.6104 15.3105 46.6582 14.8708 46.7539 14.4697C46.8496 14.0641 46.9886 13.7109 47.1709 13.4102C47.3577 13.1094 47.5856 12.877 47.8545 12.7129C48.1234 12.5488 48.431 12.4668 48.7773 12.4668C48.8867 12.4668 48.9984 12.4759 49.1123 12.4941C49.2262 12.5078 49.3197 12.5283 49.3926 12.5557ZM52.291 9.49316V20H50.3223V9.49316H52.291ZM56.9531 12.6035L53.7402 16.2676L52.0176 18.0107L51.2998 16.5889L52.667 14.8525L54.5879 12.6035H56.9531ZM54.9092 20L52.7217 16.582L54.082 15.3926L57.1787 20H54.9092ZM65.2793 18.332V15.0371C65.2793 14.8001 65.2406 14.5973 65.1631 14.4287C65.0856 14.2555 64.9648 14.1211 64.8008 14.0254C64.6413 13.9297 64.4339 13.8818 64.1787 13.8818C63.96 13.8818 63.7708 13.9206 63.6113 13.998C63.4518 14.071 63.3288 14.1781 63.2422 14.3193C63.1556 14.4561 63.1123 14.6178 63.1123 14.8047H61.1436C61.1436 14.4902 61.2165 14.1917 61.3623 13.9092C61.5081 13.6266 61.7201 13.3783 61.998 13.1641C62.276 12.9453 62.6064 12.7744 62.9893 12.6514C63.3766 12.5283 63.8096 12.4668 64.2881 12.4668C64.8623 12.4668 65.3727 12.5625 65.8193 12.7539C66.266 12.9453 66.6169 13.2324 66.8721 13.6152C67.1318 13.998 67.2617 14.4766 67.2617 15.0508V18.2158C67.2617 18.6214 67.2868 18.9541 67.3369 19.2139C67.387 19.4691 67.46 19.6924 67.5557 19.8838V20H65.5664C65.4707 19.7995 65.3978 19.5488 65.3477 19.248C65.3021 18.9427 65.2793 18.6374 65.2793 18.332ZM65.5391 15.4951L65.5527 16.6094H64.4521C64.1924 16.6094 63.9668 16.639 63.7754 16.6982C63.584 16.7575 63.4268 16.8418 63.3037 16.9512C63.1807 17.056 63.0895 17.179 63.0303 17.3203C62.9756 17.4616 62.9482 17.6165 62.9482 17.7852C62.9482 17.9538 62.987 18.1064 63.0645 18.2432C63.1419 18.3753 63.2536 18.4801 63.3994 18.5576C63.5452 18.6305 63.7161 18.667 63.9121 18.667C64.2083 18.667 64.4658 18.6077 64.6846 18.4893C64.9033 18.3708 65.0719 18.2249 65.1904 18.0518C65.3135 17.8786 65.3773 17.7145 65.3818 17.5596L65.9014 18.3936C65.8285 18.5804 65.7282 18.7741 65.6006 18.9746C65.4775 19.1751 65.3203 19.3643 65.1289 19.542C64.9375 19.7152 64.7074 19.8587 64.4385 19.9727C64.1696 20.082 63.8506 20.1367 63.4814 20.1367C63.012 20.1367 62.5859 20.0433 62.2031 19.8564C61.8249 19.665 61.5241 19.403 61.3008 19.0703C61.082 18.7331 60.9727 18.3503 60.9727 17.9219C60.9727 17.5345 61.0456 17.1904 61.1914 16.8896C61.3372 16.5889 61.5514 16.3359 61.834 16.1309C62.1211 15.9212 62.4788 15.764 62.9072 15.6592C63.3356 15.5498 63.8324 15.4951 64.3975 15.4951H65.5391ZM72.7783 17.9561C72.7783 17.8148 72.7373 17.6872 72.6553 17.5732C72.5732 17.4593 72.4206 17.3545 72.1973 17.2588C71.9785 17.1585 71.6618 17.0674 71.2471 16.9854C70.8734 16.9033 70.5247 16.8008 70.2012 16.6777C69.8822 16.5501 69.6042 16.3975 69.3672 16.2197C69.1348 16.042 68.9525 15.8324 68.8203 15.5908C68.6882 15.3447 68.6221 15.0645 68.6221 14.75C68.6221 14.4401 68.6882 14.1484 68.8203 13.875C68.957 13.6016 69.1507 13.36 69.4014 13.1504C69.6566 12.9362 69.9665 12.7699 70.3311 12.6514C70.7002 12.5283 71.1149 12.4668 71.5752 12.4668C72.2178 12.4668 72.7692 12.5693 73.2295 12.7744C73.6943 12.9795 74.0498 13.262 74.2959 13.6221C74.5465 13.9775 74.6719 14.3831 74.6719 14.8389H72.7031C72.7031 14.6475 72.6621 14.4766 72.5801 14.3262C72.5026 14.1712 72.3796 14.0505 72.2109 13.9639C72.0469 13.8727 71.8327 13.8271 71.5684 13.8271C71.3496 13.8271 71.1605 13.8659 71.001 13.9434C70.8415 14.0163 70.7184 14.1165 70.6318 14.2441C70.5498 14.3672 70.5088 14.5039 70.5088 14.6543C70.5088 14.7682 70.5316 14.8708 70.5771 14.9619C70.6273 15.0485 70.707 15.1283 70.8164 15.2012C70.9258 15.2741 71.0671 15.3424 71.2402 15.4062C71.418 15.4655 71.6367 15.5202 71.8965 15.5703C72.4297 15.6797 72.9059 15.8232 73.3252 16.001C73.7445 16.1742 74.0771 16.4111 74.3232 16.7119C74.5693 17.0081 74.6924 17.3978 74.6924 17.8809C74.6924 18.209 74.6195 18.5098 74.4736 18.7832C74.3278 19.0566 74.1182 19.2959 73.8447 19.501C73.5713 19.7015 73.2432 19.8587 72.8604 19.9727C72.4821 20.082 72.056 20.1367 71.582 20.1367C70.8939 20.1367 70.3105 20.0137 69.832 19.7676C69.3581 19.5215 68.998 19.2093 68.752 18.8311C68.5104 18.4482 68.3896 18.0563 68.3896 17.6553H70.2559C70.265 17.9242 70.3333 18.1406 70.4609 18.3047C70.5931 18.4688 70.7594 18.5872 70.96 18.6602C71.165 18.7331 71.3861 18.7695 71.623 18.7695C71.8783 18.7695 72.0902 18.7354 72.2588 18.667C72.4274 18.5941 72.555 18.4984 72.6416 18.3799C72.7327 18.2568 72.7783 18.1156 72.7783 17.9561ZM85.3496 16.6982H87.3936C87.3525 17.3682 87.168 17.9629 86.8398 18.4824C86.5163 19.002 86.0628 19.4076 85.4795 19.6992C84.9007 19.9909 84.2035 20.1367 83.3877 20.1367C82.7497 20.1367 82.1777 20.0273 81.6719 19.8086C81.166 19.5853 80.7331 19.2663 80.373 18.8516C80.0176 18.4368 79.7464 17.9355 79.5596 17.3477C79.3727 16.7598 79.2793 16.1012 79.2793 15.3721V14.6816C79.2793 13.9525 79.375 13.2939 79.5664 12.7061C79.7624 12.1136 80.0404 11.61 80.4004 11.1953C80.765 10.7806 81.2002 10.4616 81.7061 10.2383C82.2119 10.015 82.777 9.90332 83.4014 9.90332C84.2308 9.90332 84.9303 10.0537 85.5 10.3545C86.0742 10.6553 86.5186 11.07 86.833 11.5986C87.152 12.1273 87.3434 12.7288 87.4072 13.4033H85.3564C85.3337 13.0023 85.2539 12.6628 85.1172 12.3848C84.9805 12.1022 84.7731 11.8903 84.4951 11.749C84.2217 11.6032 83.8571 11.5303 83.4014 11.5303C83.0596 11.5303 82.7611 11.5941 82.5059 11.7217C82.2507 11.8493 82.0365 12.043 81.8633 12.3027C81.6901 12.5625 81.5602 12.8906 81.4736 13.2871C81.3916 13.679 81.3506 14.1393 81.3506 14.668V15.3721C81.3506 15.887 81.3893 16.3405 81.4668 16.7324C81.5443 17.1198 81.6628 17.4479 81.8223 17.7168C81.9863 17.9811 82.196 18.1816 82.4512 18.3184C82.7109 18.4505 83.0231 18.5166 83.3877 18.5166C83.8161 18.5166 84.1693 18.4482 84.4473 18.3115C84.7253 18.1748 84.9372 17.972 85.083 17.7031C85.2334 17.4342 85.3223 17.0993 85.3496 16.6982ZM88.3027 16.377V16.2334C88.3027 15.6911 88.3802 15.1921 88.5352 14.7363C88.6901 14.276 88.9157 13.8773 89.2119 13.54C89.5081 13.2028 89.8727 12.9408 90.3057 12.7539C90.7386 12.5625 91.2354 12.4668 91.7959 12.4668C92.3564 12.4668 92.8555 12.5625 93.293 12.7539C93.7305 12.9408 94.0973 13.2028 94.3936 13.54C94.6943 13.8773 94.9222 14.276 95.0771 14.7363C95.2321 15.1921 95.3096 15.6911 95.3096 16.2334V16.377C95.3096 16.9147 95.2321 17.4137 95.0771 17.874C94.9222 18.3298 94.6943 18.7285 94.3936 19.0703C94.0973 19.4076 93.7327 19.6696 93.2998 19.8564C92.8669 20.0433 92.3701 20.1367 91.8096 20.1367C91.249 20.1367 90.75 20.0433 90.3125 19.8564C89.8796 19.6696 89.5127 19.4076 89.2119 19.0703C88.9157 18.7285 88.6901 18.3298 88.5352 17.874C88.3802 17.4137 88.3027 16.9147 88.3027 16.377ZM90.2715 16.2334V16.377C90.2715 16.6868 90.2988 16.9762 90.3535 17.2451C90.4082 17.514 90.4948 17.751 90.6133 17.9561C90.7363 18.1566 90.8958 18.3138 91.0918 18.4277C91.2878 18.5417 91.527 18.5986 91.8096 18.5986C92.083 18.5986 92.3177 18.5417 92.5137 18.4277C92.7096 18.3138 92.8669 18.1566 92.9854 17.9561C93.1038 17.751 93.1904 17.514 93.2451 17.2451C93.3044 16.9762 93.334 16.6868 93.334 16.377V16.2334C93.334 15.9326 93.3044 15.6501 93.2451 15.3857C93.1904 15.1169 93.1016 14.8799 92.9785 14.6748C92.86 14.4652 92.7028 14.3011 92.5068 14.1826C92.3109 14.0641 92.0739 14.0049 91.7959 14.0049C91.5179 14.0049 91.2809 14.0641 91.085 14.1826C90.8936 14.3011 90.7363 14.4652 90.6133 14.6748C90.4948 14.8799 90.4082 15.1169 90.3535 15.3857C90.2988 15.6501 90.2715 15.9326 90.2715 16.2334ZM98.4883 14.1348V20H96.5127V12.6035H98.3652L98.4883 14.1348ZM98.2148 16.042H97.668C97.668 15.527 97.7295 15.0531 97.8525 14.6201C97.9801 14.1826 98.1647 13.8044 98.4062 13.4854C98.6523 13.1618 98.9554 12.9111 99.3154 12.7334C99.6755 12.5557 100.092 12.4668 100.566 12.4668C100.895 12.4668 101.195 12.5169 101.469 12.6172C101.742 12.7129 101.977 12.8656 102.173 13.0752C102.373 13.2803 102.528 13.5492 102.638 13.8818C102.747 14.21 102.802 14.6042 102.802 15.0645V20H100.833V15.2832C100.833 14.946 100.787 14.6862 100.696 14.5039C100.605 14.3216 100.475 14.194 100.307 14.1211C100.143 14.0482 99.9443 14.0117 99.7119 14.0117C99.4567 14.0117 99.2334 14.0641 99.042 14.1689C98.8551 14.2738 98.7002 14.4196 98.5771 14.6064C98.4541 14.7887 98.363 15.0029 98.3037 15.249C98.2445 15.4951 98.2148 15.7594 98.2148 16.042ZM102.617 15.8164L101.913 15.9053C101.913 15.4222 101.972 14.9733 102.091 14.5586C102.214 14.1439 102.394 13.7793 102.631 13.4648C102.872 13.1504 103.171 12.9066 103.526 12.7334C103.882 12.5557 104.292 12.4668 104.757 12.4668C105.112 12.4668 105.436 12.5192 105.728 12.624C106.019 12.7243 106.268 12.8861 106.473 13.1094C106.682 13.3281 106.842 13.6152 106.951 13.9707C107.065 14.3262 107.122 14.7614 107.122 15.2764V20H105.146V15.2764C105.146 14.9346 105.101 14.6748 105.01 14.4971C104.923 14.3148 104.796 14.1895 104.627 14.1211C104.463 14.0482 104.267 14.0117 104.039 14.0117C103.802 14.0117 103.595 14.0596 103.417 14.1553C103.239 14.2464 103.091 14.374 102.973 14.5381C102.854 14.7021 102.765 14.8936 102.706 15.1123C102.647 15.3265 102.617 15.5612 102.617 15.8164ZM110.615 14.0254V22.8438H108.646V12.6035H110.472L110.615 14.0254ZM115.298 16.2197V16.3633C115.298 16.901 115.234 17.4001 115.106 17.8604C114.983 18.3206 114.801 18.7217 114.56 19.0635C114.318 19.4007 114.017 19.665 113.657 19.8564C113.302 20.0433 112.892 20.1367 112.427 20.1367C111.976 20.1367 111.584 20.0456 111.251 19.8633C110.918 19.681 110.638 19.4258 110.41 19.0977C110.187 18.765 110.007 18.3799 109.87 17.9424C109.733 17.5049 109.629 17.0355 109.556 16.5342V16.1582C109.629 15.6204 109.733 15.1283 109.87 14.6816C110.007 14.2305 110.187 13.8408 110.41 13.5127C110.638 13.18 110.916 12.9225 111.244 12.7402C111.577 12.5579 111.966 12.4668 112.413 12.4668C112.882 12.4668 113.295 12.5557 113.65 12.7334C114.01 12.9111 114.311 13.1663 114.553 13.499C114.799 13.8317 114.983 14.2282 115.106 14.6885C115.234 15.1488 115.298 15.6592 115.298 16.2197ZM113.322 16.3633V16.2197C113.322 15.9053 113.295 15.6159 113.24 15.3516C113.19 15.0827 113.108 14.848 112.994 14.6475C112.885 14.4469 112.739 14.292 112.557 14.1826C112.379 14.0687 112.162 14.0117 111.907 14.0117C111.638 14.0117 111.408 14.055 111.217 14.1416C111.03 14.2282 110.877 14.3535 110.759 14.5176C110.64 14.6816 110.551 14.8776 110.492 15.1055C110.433 15.3333 110.396 15.5908 110.383 15.8779V16.8281C110.406 17.1654 110.469 17.4684 110.574 17.7373C110.679 18.0016 110.841 18.2113 111.06 18.3662C111.278 18.5212 111.565 18.5986 111.921 18.5986C112.181 18.5986 112.399 18.5417 112.577 18.4277C112.755 18.3092 112.898 18.1475 113.008 17.9424C113.122 17.7373 113.201 17.5003 113.247 17.2314C113.297 16.9626 113.322 16.6732 113.322 16.3633ZM118.6 9.5V20H116.624V9.5H118.6ZM123.631 20.1367C123.057 20.1367 122.542 20.0456 122.086 19.8633C121.63 19.6764 121.243 19.4189 120.924 19.0908C120.609 18.7627 120.368 18.3822 120.199 17.9492C120.031 17.5117 119.946 17.0469 119.946 16.5547V16.2812C119.946 15.7207 120.026 15.208 120.186 14.7432C120.345 14.2783 120.573 13.875 120.869 13.5332C121.17 13.1914 121.535 12.9294 121.963 12.7471C122.391 12.5602 122.874 12.4668 123.412 12.4668C123.936 12.4668 124.401 12.5534 124.807 12.7266C125.212 12.8997 125.552 13.1458 125.825 13.4648C126.103 13.7839 126.313 14.1667 126.454 14.6133C126.595 15.0553 126.666 15.5475 126.666 16.0898V16.9102H120.787V15.5977H124.731V15.4473C124.731 15.1738 124.681 14.93 124.581 14.7158C124.485 14.4971 124.34 14.3239 124.144 14.1963C123.948 14.0687 123.697 14.0049 123.392 14.0049C123.132 14.0049 122.909 14.0618 122.722 14.1758C122.535 14.2897 122.382 14.4492 122.264 14.6543C122.15 14.8594 122.063 15.1009 122.004 15.3789C121.949 15.6523 121.922 15.9531 121.922 16.2812V16.5547C121.922 16.8509 121.963 17.1243 122.045 17.375C122.132 17.6257 122.252 17.8421 122.407 18.0244C122.567 18.2067 122.758 18.348 122.981 18.4482C123.209 18.5485 123.467 18.5986 123.754 18.5986C124.109 18.5986 124.44 18.5303 124.745 18.3936C125.055 18.2523 125.322 18.0404 125.545 17.7578L126.502 18.7969C126.347 19.0202 126.135 19.2344 125.866 19.4395C125.602 19.6445 125.283 19.8132 124.909 19.9453C124.535 20.0729 124.109 20.1367 123.631 20.1367ZM131.41 12.6035V13.998H127.104V12.6035H131.41ZM128.17 10.7783H130.139V17.7715C130.139 17.9857 130.166 18.1497 130.221 18.2637C130.28 18.3776 130.367 18.4574 130.48 18.5029C130.594 18.5439 130.738 18.5645 130.911 18.5645C131.034 18.5645 131.144 18.5599 131.239 18.5508C131.34 18.5371 131.424 18.5234 131.492 18.5098L131.499 19.959C131.33 20.0137 131.148 20.057 130.952 20.0889C130.756 20.1208 130.54 20.1367 130.303 20.1367C129.87 20.1367 129.492 20.0661 129.168 19.9248C128.849 19.779 128.603 19.5465 128.43 19.2275C128.257 18.9085 128.17 18.4893 128.17 17.9697V10.7783ZM135.936 20.1367C135.361 20.1367 134.846 20.0456 134.391 19.8633C133.935 19.6764 133.548 19.4189 133.229 19.0908C132.914 18.7627 132.673 18.3822 132.504 17.9492C132.335 17.5117 132.251 17.0469 132.251 16.5547V16.2812C132.251 15.7207 132.331 15.208 132.49 14.7432C132.65 14.2783 132.878 13.875 133.174 13.5332C133.475 13.1914 133.839 12.9294 134.268 12.7471C134.696 12.5602 135.179 12.4668 135.717 12.4668C136.241 12.4668 136.706 12.5534 137.111 12.7266C137.517 12.8997 137.856 13.1458 138.13 13.4648C138.408 13.7839 138.618 14.1667 138.759 14.6133C138.9 15.0553 138.971 15.5475 138.971 16.0898V16.9102H133.092V15.5977H137.036V15.4473C137.036 15.1738 136.986 14.93 136.886 14.7158C136.79 14.4971 136.644 14.3239 136.448 14.1963C136.252 14.0687 136.002 14.0049 135.696 14.0049C135.437 14.0049 135.213 14.0618 135.026 14.1758C134.84 14.2897 134.687 14.4492 134.568 14.6543C134.454 14.8594 134.368 15.1009 134.309 15.3789C134.254 15.6523 134.227 15.9531 134.227 16.2812V16.5547C134.227 16.8509 134.268 17.1243 134.35 17.375C134.436 17.6257 134.557 17.8421 134.712 18.0244C134.871 18.2067 135.063 18.348 135.286 18.4482C135.514 18.5485 135.771 18.5986 136.059 18.5986C136.414 18.5986 136.744 18.5303 137.05 18.3936C137.36 18.2523 137.626 18.0404 137.85 17.7578L138.807 18.7969C138.652 19.0202 138.44 19.2344 138.171 19.4395C137.907 19.6445 137.588 19.8132 137.214 19.9453C136.84 20.0729 136.414 20.1367 135.936 20.1367Z" fill="white"/>
</g>
<defs>
<clipPath id="clip0_505_32640">
<rect x="0.5" width="163" height="30" rx="15" fill="white"/>
</clipPath>
</defs>
</svg>
