<svg width="94" height="32" viewBox="0 0 94 32" fill="none" xmlns="http://www.w3.org/2000/svg">
<g clip-path="url(#clip0_505_32630)">
<path d="M32.125 17.6982H34.1689C34.1279 18.3682 33.9434 18.9629 33.6152 19.4824C33.2917 20.002 32.8382 20.4076 32.2549 20.6992C31.6761 20.9909 30.9788 21.1367 30.1631 21.1367C29.5251 21.1367 28.9531 21.0273 28.4473 20.8086C27.9414 20.5853 27.5085 20.2663 27.1484 19.8516C26.793 19.4368 26.5218 18.9355 26.335 18.3477C26.1481 17.7598 26.0547 17.1012 26.0547 16.3721V15.6816C26.0547 14.9525 26.1504 14.2939 26.3418 13.7061C26.5378 13.1136 26.8158 12.61 27.1758 12.1953C27.5404 11.7806 27.9756 11.4616 28.4814 11.2383C28.9873 11.015 29.5524 10.9033 30.1768 10.9033C31.0062 10.9033 31.7057 11.0537 32.2754 11.3545C32.8496 11.6553 33.2939 12.07 33.6084 12.5986C33.9274 13.1273 34.1188 13.7288 34.1826 14.4033H32.1318C32.109 14.0023 32.0293 13.6628 31.8926 13.3848C31.7559 13.1022 31.5485 12.8903 31.2705 12.749C30.9971 12.6032 30.6325 12.5303 30.1768 12.5303C29.835 12.5303 29.5365 12.5941 29.2812 12.7217C29.026 12.8493 28.8118 13.043 28.6387 13.3027C28.4655 13.5625 28.3356 13.8906 28.249 14.2871C28.167 14.679 28.126 15.1393 28.126 15.668V16.3721C28.126 16.887 28.1647 17.3405 28.2422 17.7324C28.3197 18.1198 28.4382 18.4479 28.5977 18.7168C28.7617 18.9811 28.9714 19.1816 29.2266 19.3184C29.4863 19.4505 29.7985 19.5166 30.1631 19.5166C30.5915 19.5166 30.9447 19.4482 31.2227 19.3115C31.5007 19.1748 31.7126 18.972 31.8584 18.7031C32.0088 18.4342 32.0977 18.0993 32.125 17.6982ZM39.3848 19.332V16.0371C39.3848 15.8001 39.346 15.5973 39.2686 15.4287C39.1911 15.2555 39.0703 15.1211 38.9062 15.0254C38.7467 14.9297 38.5394 14.8818 38.2842 14.8818C38.0654 14.8818 37.8763 14.9206 37.7168 14.998C37.5573 15.071 37.4342 15.1781 37.3477 15.3193C37.2611 15.4561 37.2178 15.6178 37.2178 15.8047H35.249C35.249 15.4902 35.3219 15.1917 35.4678 14.9092C35.6136 14.6266 35.8255 14.3783 36.1035 14.1641C36.3815 13.9453 36.7119 13.7744 37.0947 13.6514C37.4821 13.5283 37.915 13.4668 38.3936 13.4668C38.9678 13.4668 39.4782 13.5625 39.9248 13.7539C40.3714 13.9453 40.7223 14.2324 40.9775 14.6152C41.2373 14.998 41.3672 15.4766 41.3672 16.0508V19.2158C41.3672 19.6214 41.3923 19.9541 41.4424 20.2139C41.4925 20.4691 41.5654 20.6924 41.6611 20.8838V21H39.6719C39.5762 20.7995 39.5033 20.5488 39.4531 20.248C39.4076 19.9427 39.3848 19.6374 39.3848 19.332ZM39.6445 16.4951L39.6582 17.6094H38.5576C38.2979 17.6094 38.0723 17.639 37.8809 17.6982C37.6895 17.7575 37.5322 17.8418 37.4092 17.9512C37.2861 18.056 37.195 18.179 37.1357 18.3203C37.0811 18.4616 37.0537 18.6165 37.0537 18.7852C37.0537 18.9538 37.0924 19.1064 37.1699 19.2432C37.2474 19.3753 37.359 19.4801 37.5049 19.5576C37.6507 19.6305 37.8216 19.667 38.0176 19.667C38.3138 19.667 38.5713 19.6077 38.79 19.4893C39.0088 19.3708 39.1774 19.2249 39.2959 19.0518C39.4189 18.8786 39.4827 18.7145 39.4873 18.5596L40.0068 19.3936C39.9339 19.5804 39.8337 19.7741 39.7061 19.9746C39.583 20.1751 39.4258 20.3643 39.2344 20.542C39.043 20.7152 38.8128 20.8587 38.5439 20.9727C38.2751 21.082 37.9561 21.1367 37.5869 21.1367C37.1175 21.1367 36.6914 21.0433 36.3086 20.8564C35.9303 20.665 35.6296 20.403 35.4062 20.0703C35.1875 19.7331 35.0781 19.3503 35.0781 18.9219C35.0781 18.5345 35.151 18.1904 35.2969 17.8896C35.4427 17.5889 35.6569 17.3359 35.9395 17.1309C36.2266 16.9212 36.5843 16.764 37.0127 16.6592C37.4411 16.5498 37.9378 16.4951 38.5029 16.4951H39.6445ZM44.8125 15.1826V21H42.8438V13.6035H44.6895L44.8125 15.1826ZM44.5254 17.042H43.9922C43.9922 16.4951 44.0628 16.0029 44.2041 15.5654C44.3454 15.1234 44.5436 14.7474 44.7988 14.4375C45.054 14.123 45.3571 13.8838 45.708 13.7197C46.0635 13.5511 46.46 13.4668 46.8975 13.4668C47.2438 13.4668 47.5605 13.5169 47.8477 13.6172C48.1348 13.7174 48.3809 13.877 48.5859 14.0957C48.7956 14.3145 48.9551 14.6038 49.0645 14.9639C49.1784 15.3239 49.2354 15.7637 49.2354 16.2832V21H47.2529V16.2764C47.2529 15.9482 47.2074 15.693 47.1162 15.5107C47.0251 15.3285 46.8906 15.2008 46.7129 15.1279C46.5397 15.0505 46.3255 15.0117 46.0703 15.0117C45.806 15.0117 45.5758 15.0641 45.3799 15.1689C45.1885 15.2738 45.029 15.4196 44.9014 15.6064C44.7783 15.7887 44.6849 16.0029 44.6211 16.249C44.5573 16.4951 44.5254 16.7594 44.5254 17.042ZM53.7881 19.5986C54.0296 19.5986 54.2438 19.5531 54.4307 19.4619C54.6175 19.3662 54.7633 19.234 54.8682 19.0654C54.9775 18.8923 55.0345 18.6895 55.0391 18.457H56.8916C56.887 18.9766 56.748 19.4391 56.4746 19.8447C56.2012 20.2458 55.8343 20.5625 55.374 20.7949C54.9137 21.0228 54.3988 21.1367 53.8291 21.1367C53.2549 21.1367 52.7536 21.041 52.3252 20.8496C51.9014 20.6582 51.5482 20.3939 51.2656 20.0566C50.9831 19.7148 50.7712 19.3184 50.6299 18.8672C50.4886 18.4115 50.418 17.9238 50.418 17.4043V17.2061C50.418 16.682 50.4886 16.1943 50.6299 15.7432C50.7712 15.2874 50.9831 14.891 51.2656 14.5537C51.5482 14.2119 51.9014 13.9453 52.3252 13.7539C52.749 13.5625 53.2458 13.4668 53.8154 13.4668C54.4215 13.4668 54.9525 13.583 55.4082 13.8154C55.8685 14.0479 56.2285 14.3805 56.4883 14.8135C56.7526 15.2419 56.887 15.75 56.8916 16.3379H55.0391C55.0345 16.0918 54.9821 15.8685 54.8818 15.668C54.7861 15.4674 54.6449 15.3079 54.458 15.1895C54.2757 15.0664 54.0501 15.0049 53.7812 15.0049C53.4941 15.0049 53.2594 15.0664 53.0771 15.1895C52.8949 15.3079 52.7536 15.472 52.6533 15.6816C52.5531 15.8867 52.4824 16.1214 52.4414 16.3857C52.4049 16.6455 52.3867 16.9189 52.3867 17.2061V17.4043C52.3867 17.6914 52.4049 17.9671 52.4414 18.2314C52.4779 18.4958 52.5462 18.7305 52.6465 18.9355C52.7513 19.1406 52.8949 19.3024 53.0771 19.4209C53.2594 19.5394 53.4964 19.5986 53.7881 19.5986ZM61.4375 21.1367C60.8633 21.1367 60.3483 21.0456 59.8926 20.8633C59.4368 20.6764 59.0495 20.4189 58.7305 20.0908C58.416 19.7627 58.1745 19.3822 58.0059 18.9492C57.8372 18.5117 57.7529 18.0469 57.7529 17.5547V17.2812C57.7529 16.7207 57.8327 16.208 57.9922 15.7432C58.1517 15.2783 58.3796 14.875 58.6758 14.5332C58.9766 14.1914 59.3411 13.9294 59.7695 13.7471C60.1979 13.5602 60.681 13.4668 61.2188 13.4668C61.7428 13.4668 62.2077 13.5534 62.6133 13.7266C63.0189 13.8997 63.3584 14.1458 63.6318 14.4648C63.9098 14.7839 64.1195 15.1667 64.2607 15.6133C64.402 16.0553 64.4727 16.5475 64.4727 17.0898V17.9102H58.5938V16.5977H62.5381V16.4473C62.5381 16.1738 62.488 15.93 62.3877 15.7158C62.292 15.4971 62.1462 15.3239 61.9502 15.1963C61.7542 15.0687 61.5036 15.0049 61.1982 15.0049C60.9385 15.0049 60.7152 15.0618 60.5283 15.1758C60.3415 15.2897 60.1888 15.4492 60.0703 15.6543C59.9564 15.8594 59.8698 16.1009 59.8105 16.3789C59.7559 16.6523 59.7285 16.9531 59.7285 17.2812V17.5547C59.7285 17.8509 59.7695 18.1243 59.8516 18.375C59.9382 18.6257 60.0589 18.8421 60.2139 19.0244C60.3734 19.2067 60.5648 19.348 60.7881 19.4482C61.016 19.5485 61.2734 19.5986 61.5605 19.5986C61.916 19.5986 62.2464 19.5303 62.5518 19.3936C62.8617 19.2523 63.1283 19.0404 63.3516 18.7578L64.3086 19.7969C64.1536 20.0202 63.9417 20.2344 63.6729 20.4395C63.4085 20.6445 63.0895 20.8132 62.7158 20.9453C62.3421 21.0729 61.916 21.1367 61.4375 21.1367ZM67.6719 10.5V21H65.6963V10.5H67.6719Z" fill="#027CEC"/>
</g>
<rect x="1" y="1" width="92" height="30" rx="15" stroke="#027CEC" stroke-width="0.5"/>
<defs>
<clipPath id="clip0_505_32630">
<rect x="1" y="1" width="92" height="30" rx="15" fill="white"/>
</clipPath>
</defs>
</svg>
