<svg width="128" height="32" viewBox="0 0 128 32" fill="none" xmlns="http://www.w3.org/2000/svg">
<rect x="0.75" y="0.25" width="126.5" height="31.5" rx="15.75" fill="#F2F8FD"/>
<rect x="0.75" y="0.25" width="126.5" height="31.5" rx="15.75" stroke="#027CEC" stroke-width="0.5"/>
<path d="M19.5 17H13.5V15H19.5V9H21.5V15H27.5V17H21.5V23H19.5V17Z" fill="#027CEC"/>
<path d="M45.4893 11.0469V21H43.4385L39.4395 14.3281V21H37.3887V11.0469H39.4395L43.4453 17.7256V11.0469H45.4893ZM50.5547 21.1367C49.9805 21.1367 49.4655 21.0456 49.0098 20.8633C48.554 20.6764 48.1667 20.4189 47.8477 20.0908C47.5332 19.7627 47.2917 19.3822 47.123 18.9492C46.9544 18.5117 46.8701 18.0469 46.8701 17.5547V17.2812C46.8701 16.7207 46.9499 16.208 47.1094 15.7432C47.2689 15.2783 47.4967 14.875 47.793 14.5332C48.0938 14.1914 48.4583 13.9294 48.8867 13.7471C49.3151 13.5602 49.7982 13.4668 50.3359 13.4668C50.86 13.4668 51.3249 13.5534 51.7305 13.7266C52.1361 13.8997 52.4756 14.1458 52.749 14.4648C53.027 14.7839 53.2367 15.1667 53.3779 15.6133C53.5192 16.0553 53.5898 16.5475 53.5898 17.0898V17.9102H47.7109V16.5977H51.6553V16.4473C51.6553 16.1738 51.6051 15.93 51.5049 15.7158C51.4092 15.4971 51.2633 15.3239 51.0674 15.1963C50.8714 15.0687 50.6208 15.0049 50.3154 15.0049C50.0557 15.0049 49.8324 15.0618 49.6455 15.1758C49.4587 15.2897 49.306 15.4492 49.1875 15.6543C49.0736 15.8594 48.987 16.1009 48.9277 16.3789C48.873 16.6523 48.8457 16.9531 48.8457 17.2812V17.5547C48.8457 17.8509 48.8867 18.1243 48.9688 18.375C49.0553 18.6257 49.1761 18.8421 49.3311 19.0244C49.4906 19.2067 49.682 19.348 49.9053 19.4482C50.1331 19.5485 50.3906 19.5986 50.6777 19.5986C51.0332 19.5986 51.3636 19.5303 51.6689 19.3936C51.9788 19.2523 52.2454 19.0404 52.4688 18.7578L53.4258 19.7969C53.2708 20.0202 53.0589 20.2344 52.79 20.4395C52.5257 20.6445 52.2067 20.8132 51.833 20.9453C51.4593 21.0729 51.0332 21.1367 50.5547 21.1367ZM56.8232 19.0859L58.3613 13.6035H59.6123L59.209 15.7568L57.6709 21H56.625L56.8232 19.0859ZM56.0439 13.6035L57.1445 19.0791L57.2471 21H56.0166L54.1436 13.6035H56.0439ZM61.0205 18.9902L62.0938 13.6035H64.001L62.1279 21H60.9043L61.0205 18.9902ZM59.7832 13.6035L61.3145 19.0449L61.5264 21H60.4736L58.9355 15.7637L58.5459 13.6035H59.7832ZM73.7832 18.3955C73.7832 18.2178 73.7559 18.0583 73.7012 17.917C73.651 17.7712 73.5553 17.639 73.4141 17.5205C73.2728 17.3975 73.0745 17.2767 72.8193 17.1582C72.5641 17.0397 72.2337 16.9167 71.8281 16.7891C71.377 16.6432 70.9486 16.4792 70.543 16.2969C70.1419 16.1146 69.7865 15.9027 69.4766 15.6611C69.1712 15.415 68.9297 15.1302 68.752 14.8066C68.5788 14.4831 68.4922 14.1071 68.4922 13.6787C68.4922 13.264 68.5833 12.888 68.7656 12.5508C68.9479 12.209 69.2031 11.9173 69.5312 11.6758C69.8594 11.4297 70.2467 11.2406 70.6934 11.1084C71.1445 10.9762 71.639 10.9102 72.1768 10.9102C72.9105 10.9102 73.5508 11.0423 74.0977 11.3066C74.6445 11.571 75.0684 11.9333 75.3691 12.3936C75.6745 12.8538 75.8271 13.3802 75.8271 13.9727H73.79C73.79 13.681 73.7285 13.4258 73.6055 13.207C73.487 12.9837 73.3047 12.8083 73.0586 12.6807C72.8171 12.5531 72.5117 12.4893 72.1426 12.4893C71.7871 12.4893 71.4909 12.5439 71.2539 12.6533C71.0169 12.7581 70.8392 12.9017 70.7207 13.084C70.6022 13.2617 70.543 13.4622 70.543 13.6855C70.543 13.8542 70.584 14.0068 70.666 14.1436C70.7526 14.2803 70.8802 14.4079 71.0488 14.5264C71.2174 14.6449 71.4248 14.7565 71.6709 14.8613C71.917 14.9661 72.2018 15.0687 72.5254 15.1689C73.0677 15.333 73.5439 15.5176 73.9541 15.7227C74.3688 15.9277 74.7152 16.1579 74.9932 16.4131C75.2712 16.6683 75.4808 16.9577 75.6221 17.2812C75.7633 17.6048 75.834 17.9717 75.834 18.3818C75.834 18.8148 75.7497 19.2021 75.5811 19.5439C75.4124 19.8857 75.1686 20.1751 74.8496 20.4121C74.5306 20.6491 74.1501 20.8291 73.708 20.9521C73.266 21.0752 72.7715 21.1367 72.2246 21.1367C71.7324 21.1367 71.2471 21.0729 70.7686 20.9453C70.29 20.8132 69.8548 20.6149 69.4629 20.3506C69.0755 20.0863 68.7656 19.749 68.5332 19.3389C68.3008 18.9287 68.1846 18.4434 68.1846 17.8828H70.2422C70.2422 18.1927 70.29 18.4548 70.3857 18.6689C70.4814 18.8831 70.6159 19.0563 70.7891 19.1885C70.9668 19.3206 71.1764 19.4163 71.418 19.4756C71.6641 19.5348 71.9329 19.5645 72.2246 19.5645C72.5801 19.5645 72.8717 19.5143 73.0996 19.4141C73.332 19.3138 73.5029 19.1748 73.6123 18.9971C73.7262 18.8193 73.7832 18.6188 73.7832 18.3955ZM81.4805 19.2295V13.6035H83.4492V21H81.5967L81.4805 19.2295ZM81.6992 17.7119L82.2803 17.6982C82.2803 18.1904 82.2233 18.6484 82.1094 19.0723C81.9954 19.4915 81.8245 19.8561 81.5967 20.166C81.3688 20.4714 81.0817 20.7106 80.7354 20.8838C80.389 21.0524 79.9811 21.1367 79.5117 21.1367C79.1517 21.1367 78.819 21.0866 78.5137 20.9863C78.2129 20.8815 77.9531 20.7197 77.7344 20.501C77.5202 20.2777 77.3516 19.9928 77.2285 19.6465C77.11 19.2956 77.0508 18.874 77.0508 18.3818V13.6035H79.0195V18.3955C79.0195 18.6143 79.0446 18.7988 79.0947 18.9492C79.1494 19.0996 79.2246 19.2227 79.3203 19.3184C79.416 19.4141 79.5277 19.4824 79.6553 19.5234C79.7874 19.5645 79.9333 19.585 80.0928 19.585C80.4984 19.585 80.8174 19.5029 81.0498 19.3389C81.2868 19.1748 81.4531 18.9515 81.5488 18.6689C81.6491 18.3818 81.6992 18.0628 81.6992 17.7119ZM84.9531 10.5H86.9219V19.3047L86.7236 21H84.9531V10.5ZM91.6045 17.2266V17.3701C91.6045 17.9215 91.5452 18.4274 91.4268 18.8877C91.3128 19.348 91.1351 19.7467 90.8936 20.084C90.652 20.4167 90.3512 20.6764 89.9912 20.8633C89.6357 21.0456 89.2165 21.1367 88.7334 21.1367C88.2822 21.1367 87.8903 21.0456 87.5576 20.8633C87.2295 20.681 86.9538 20.4235 86.7305 20.0908C86.5072 19.7581 86.3271 19.3685 86.1904 18.9219C86.0537 18.4753 85.9512 17.9876 85.8828 17.459V17.1445C85.9512 16.6159 86.0537 16.1283 86.1904 15.6816C86.3271 15.235 86.5072 14.8454 86.7305 14.5127C86.9538 14.18 87.2295 13.9225 87.5576 13.7402C87.8857 13.5579 88.2731 13.4668 88.7197 13.4668C89.2074 13.4668 89.6312 13.5602 89.9912 13.7471C90.3558 13.9294 90.6566 14.1891 90.8936 14.5264C91.1351 14.859 91.3128 15.2555 91.4268 15.7158C91.5452 16.1715 91.6045 16.6751 91.6045 17.2266ZM89.6357 17.3701V17.2266C89.6357 16.9258 89.613 16.6432 89.5674 16.3789C89.5264 16.11 89.4535 15.8753 89.3486 15.6748C89.2438 15.4697 89.1003 15.3079 88.918 15.1895C88.7402 15.071 88.5101 15.0117 88.2275 15.0117C87.9587 15.0117 87.7308 15.0573 87.5439 15.1484C87.3571 15.2396 87.2021 15.3672 87.0791 15.5312C86.9606 15.6953 86.8717 15.8913 86.8125 16.1191C86.7533 16.3424 86.7168 16.5885 86.7031 16.8574V17.7529C86.7168 18.113 86.776 18.432 86.8809 18.71C86.9902 18.9834 87.1543 19.1999 87.373 19.3594C87.5964 19.5143 87.8857 19.5918 88.2412 19.5918C88.5192 19.5918 88.7493 19.5371 88.9316 19.4277C89.1139 19.3184 89.2552 19.1634 89.3555 18.9629C89.4603 18.7624 89.5332 18.5277 89.5742 18.2588C89.6152 17.9854 89.6357 17.6891 89.6357 17.3701ZM96.4512 13.6035V14.998H92.1445V13.6035H96.4512ZM93.2109 11.7783H95.1797V18.7715C95.1797 18.9857 95.207 19.1497 95.2617 19.2637C95.321 19.3776 95.4076 19.4574 95.5215 19.5029C95.6354 19.5439 95.779 19.5645 95.9521 19.5645C96.0752 19.5645 96.1846 19.5599 96.2803 19.5508C96.3805 19.5371 96.4648 19.5234 96.5332 19.5098L96.54 20.959C96.3714 21.0137 96.1891 21.057 95.9932 21.0889C95.7972 21.1208 95.5807 21.1367 95.3438 21.1367C94.9108 21.1367 94.5326 21.0661 94.209 20.9248C93.89 20.779 93.6439 20.5465 93.4707 20.2275C93.2975 19.9085 93.2109 19.4893 93.2109 18.9697V11.7783ZM101.564 19.332V16.0371C101.564 15.8001 101.526 15.5973 101.448 15.4287C101.371 15.2555 101.25 15.1211 101.086 15.0254C100.926 14.9297 100.719 14.8818 100.464 14.8818C100.245 14.8818 100.056 14.9206 99.8965 14.998C99.737 15.071 99.6139 15.1781 99.5273 15.3193C99.4408 15.4561 99.3975 15.6178 99.3975 15.8047H97.4287C97.4287 15.4902 97.5016 15.1917 97.6475 14.9092C97.7933 14.6266 98.0052 14.3783 98.2832 14.1641C98.5612 13.9453 98.8916 13.7744 99.2744 13.6514C99.6618 13.5283 100.095 13.4668 100.573 13.4668C101.147 13.4668 101.658 13.5625 102.104 13.7539C102.551 13.9453 102.902 14.2324 103.157 14.6152C103.417 14.998 103.547 15.4766 103.547 16.0508V19.2158C103.547 19.6214 103.572 19.9541 103.622 20.2139C103.672 20.4691 103.745 20.6924 103.841 20.8838V21H101.852C101.756 20.7995 101.683 20.5488 101.633 20.248C101.587 19.9427 101.564 19.6374 101.564 19.332ZM101.824 16.4951L101.838 17.6094H100.737C100.478 17.6094 100.252 17.639 100.061 17.6982C99.8691 17.7575 99.7119 17.8418 99.5889 17.9512C99.4658 18.056 99.3747 18.179 99.3154 18.3203C99.2607 18.4616 99.2334 18.6165 99.2334 18.7852C99.2334 18.9538 99.2721 19.1064 99.3496 19.2432C99.4271 19.3753 99.5387 19.4801 99.6846 19.5576C99.8304 19.6305 100.001 19.667 100.197 19.667C100.493 19.667 100.751 19.6077 100.97 19.4893C101.188 19.3708 101.357 19.2249 101.476 19.0518C101.599 18.8786 101.662 18.7145 101.667 18.5596L102.187 19.3936C102.114 19.5804 102.013 19.7741 101.886 19.9746C101.763 20.1751 101.605 20.3643 101.414 20.542C101.223 20.7152 100.993 20.8587 100.724 20.9727C100.455 21.082 100.136 21.1367 99.7666 21.1367C99.2972 21.1367 98.8711 21.0433 98.4883 20.8564C98.11 20.665 97.8092 20.403 97.5859 20.0703C97.3672 19.7331 97.2578 19.3503 97.2578 18.9219C97.2578 18.5345 97.3307 18.1904 97.4766 17.8896C97.6224 17.5889 97.8366 17.3359 98.1191 17.1309C98.4062 16.9212 98.764 16.764 99.1924 16.6592C99.6208 16.5498 100.118 16.4951 100.683 16.4951H101.824ZM109.063 18.9561C109.063 18.8148 109.022 18.6872 108.94 18.5732C108.858 18.4593 108.706 18.3545 108.482 18.2588C108.264 18.1585 107.947 18.0674 107.532 17.9854C107.159 17.9033 106.81 17.8008 106.486 17.6777C106.167 17.5501 105.889 17.3975 105.652 17.2197C105.42 17.042 105.238 16.8324 105.105 16.5908C104.973 16.3447 104.907 16.0645 104.907 15.75C104.907 15.4401 104.973 15.1484 105.105 14.875C105.242 14.6016 105.436 14.36 105.687 14.1504C105.942 13.9362 106.252 13.7699 106.616 13.6514C106.985 13.5283 107.4 13.4668 107.86 13.4668C108.503 13.4668 109.054 13.5693 109.515 13.7744C109.979 13.9795 110.335 14.262 110.581 14.6221C110.832 14.9775 110.957 15.3831 110.957 15.8389H108.988C108.988 15.6475 108.947 15.4766 108.865 15.3262C108.788 15.1712 108.665 15.0505 108.496 14.9639C108.332 14.8727 108.118 14.8271 107.854 14.8271C107.635 14.8271 107.446 14.8659 107.286 14.9434C107.127 15.0163 107.004 15.1165 106.917 15.2441C106.835 15.3672 106.794 15.5039 106.794 15.6543C106.794 15.7682 106.817 15.8708 106.862 15.9619C106.912 16.0485 106.992 16.1283 107.102 16.2012C107.211 16.2741 107.352 16.3424 107.525 16.4062C107.703 16.4655 107.922 16.5202 108.182 16.5703C108.715 16.6797 109.191 16.8232 109.61 17.001C110.03 17.1742 110.362 17.4111 110.608 17.7119C110.854 18.0081 110.978 18.3978 110.978 18.8809C110.978 19.209 110.905 19.5098 110.759 19.7832C110.613 20.0566 110.403 20.2959 110.13 20.501C109.856 20.7015 109.528 20.8587 109.146 20.9727C108.767 21.082 108.341 21.1367 107.867 21.1367C107.179 21.1367 106.596 21.0137 106.117 20.7676C105.643 20.5215 105.283 20.2093 105.037 19.8311C104.796 19.4482 104.675 19.0563 104.675 18.6553H106.541C106.55 18.9242 106.618 19.1406 106.746 19.3047C106.878 19.4688 107.045 19.5872 107.245 19.6602C107.45 19.7331 107.671 19.7695 107.908 19.7695C108.163 19.7695 108.375 19.7354 108.544 19.667C108.713 19.5941 108.84 19.4984 108.927 19.3799C109.018 19.2568 109.063 19.1156 109.063 18.9561ZM114.225 10.4932V21H112.256V10.4932H114.225ZM118.887 13.6035L115.674 17.2676L113.951 19.0107L113.233 17.5889L114.601 15.8525L116.521 13.6035H118.887ZM116.843 21L114.655 17.582L116.016 16.3926L119.112 21H116.843Z" fill="#027CEC"/>
</svg>
