<svg width="338" height="131" viewBox="0 0 338 131" fill="none" xmlns="http://www.w3.org/2000/svg">
<path fill-rule="evenodd" clip-rule="evenodd" d="M24.078 92.458H32.7339V41.1911L53.945 62.5393V38.0745L24 8L24.078 92.458Z" fill="white"/>
<path fill-rule="evenodd" clip-rule="evenodd" d="M74.922 38.542H66.2661V89.8089L45.055 68.4607V92.9255L75 123L74.922 38.542Z" fill="white"/>
<path d="M117.812 56.0625C115.854 53.25 113.51 49.5312 110.781 44.9062V80.5H104.938V35.1875H110.125L126.906 59C128.573 61.3542 131.073 65.2396 134.406 70.6562V35.1875H140.219V80.5H135.031L117.812 56.0625ZM162.25 47.0938C166.354 47.0938 169.51 48.1771 171.719 50.3438C173.948 52.4896 175.062 55.5625 175.062 59.5625V80.5H170.438L169.562 76.6562C166.354 79.6354 162.75 81.125 158.75 81.125C155.458 81.125 152.844 80.2396 150.906 78.4688C148.969 76.6979 148 74.3229 148 71.3438C148 67.8854 149.417 65.1875 152.25 63.25C155.083 61.3125 159.062 60.3438 164.188 60.3438H169.031V59.4375C168.865 54.75 166.458 52.4062 161.812 52.4062C160.396 52.4062 158.802 52.625 157.031 53.0625C155.26 53.4792 153.479 54.0521 151.688 54.7812L150.031 49.9062C151.948 49.0104 153.969 48.3229 156.094 47.8438C158.24 47.3438 160.292 47.0938 162.25 47.0938ZM164.562 64.9375C161.229 64.9375 158.635 65.4896 156.781 66.5938C154.927 67.6771 154 69.1979 154 71.1562C154 72.6562 154.51 73.8125 155.531 74.625C156.552 75.4167 157.979 75.8125 159.812 75.8125C161.562 75.8125 163.271 75.4479 164.938 74.7188C166.604 73.9688 167.969 72.9688 169.031 71.7188V64.9375H164.562ZM179.812 47.5938H186.156L192.438 65.125C192.771 66.0625 193.125 67.1667 193.5 68.4375C193.896 69.6875 194.198 70.6146 194.406 71.2188C194.406 71.1354 194.75 72.2188 195.438 74.4688L196.469 71.2188C197.531 67.8854 198.188 65.8542 198.438 65.125L204.719 47.5938H210.812L199.094 80.5H191.531L179.812 47.5938ZM245.188 40.625H231.938V80.5H225.781V40.625H211.75V35.1875H245.188V40.625ZM259 47.0938C263.104 47.0938 266.26 48.1771 268.469 50.3438C270.698 52.4896 271.812 55.5625 271.812 59.5625V80.5H267.188L266.312 76.6562C263.104 79.6354 259.5 81.125 255.5 81.125C252.208 81.125 249.594 80.2396 247.656 78.4688C245.719 76.6979 244.75 74.3229 244.75 71.3438C244.75 67.8854 246.167 65.1875 249 63.25C251.833 61.3125 255.812 60.3438 260.938 60.3438H265.781V59.4375C265.615 54.75 263.208 52.4062 258.562 52.4062C257.146 52.4062 255.552 52.625 253.781 53.0625C252.01 53.4792 250.229 54.0521 248.438 54.7812L246.781 49.9062C248.698 49.0104 250.719 48.3229 252.844 47.8438C254.99 47.3438 257.042 47.0938 259 47.0938ZM261.312 64.9375C257.979 64.9375 255.385 65.4896 253.531 66.5938C251.677 67.6771 250.75 69.1979 250.75 71.1562C250.75 72.6562 251.26 73.8125 252.281 74.625C253.302 75.4167 254.729 75.8125 256.562 75.8125C258.312 75.8125 260.021 75.4479 261.688 74.7188C263.354 73.9688 264.719 72.9688 265.781 71.7188V64.9375H261.312ZM291.156 47.0312C293.844 47.0104 296.958 47.7083 300.5 49.125L298.906 54.125C295.781 52.8958 293.198 52.2812 291.156 52.2812C289.281 52.2812 287.802 52.6458 286.719 53.375C285.635 54.0833 285.094 55.0625 285.094 56.3125C285.094 57.5 285.573 58.4062 286.531 59.0312C287.49 59.6562 288.927 60.2604 290.844 60.8438C293.115 61.5729 294.917 62.25 296.25 62.875C297.604 63.4792 298.781 64.4583 299.781 65.8125C300.781 67.1458 301.281 68.9271 301.281 71.1562C301.281 74.1771 300.188 76.5833 298 78.375C295.833 80.1667 292.896 81.0625 289.188 81.0625C285.312 81.0625 281.573 80.2396 277.969 78.5938L279.844 73.4062C281.885 74.2604 283.594 74.8646 284.969 75.2188C286.365 75.5729 287.75 75.75 289.125 75.75C291.083 75.75 292.594 75.375 293.656 74.625C294.719 73.8542 295.25 72.7396 295.25 71.2812C295.25 70.3438 294.948 69.5729 294.344 68.9688C293.76 68.3438 293.031 67.8646 292.156 67.5312C291.281 67.1771 290.031 66.7396 288.406 66.2188C286.448 65.5729 284.833 64.9375 283.562 64.3125C282.312 63.6667 281.25 62.7083 280.375 61.4375C279.5 60.1458 279.062 58.4583 279.062 56.375C279.062 53.5208 280.156 51.25 282.344 49.5625C284.552 47.875 287.49 47.0312 291.156 47.0312ZM308.75 32.1875H314.75V80.5H308.75V32.1875ZM337.156 80.5H329.812L315.594 61.875L327.75 47.5938H334.875L322.906 61.5625L337.156 80.5Z" fill="white"/>
<path d="M103.947 91.3311C104.91 91.3255 105.906 91.5386 106.936 91.9702L106.529 93.4727C105.5 93.0742 104.628 92.875 103.914 92.875C103.189 92.875 102.614 93.0161 102.188 93.2983C101.761 93.5806 101.548 93.9735 101.548 94.4771C101.548 94.8423 101.623 95.1466 101.772 95.3901C101.927 95.6281 102.188 95.8439 102.553 96.0376C102.918 96.2313 103.427 96.425 104.08 96.6187C105.248 96.9562 106.078 97.4017 106.57 97.9551C107.063 98.5029 107.309 99.2472 107.309 100.188C107.309 101.267 106.947 102.114 106.222 102.728C105.497 103.342 104.501 103.649 103.233 103.649C102.143 103.649 100.931 103.367 99.5977 102.803L100.087 101.325C100.834 101.618 101.429 101.823 101.872 101.939C102.315 102.05 102.769 102.105 103.233 102.105C103.969 102.105 104.55 101.937 104.977 101.599C105.403 101.256 105.616 100.791 105.616 100.205C105.616 99.8283 105.535 99.5156 105.375 99.2666C105.215 99.0176 104.938 98.7935 104.545 98.5942C104.158 98.395 103.607 98.1986 102.893 98.0049C101.803 97.7116 101.023 97.3076 100.552 96.793C100.082 96.2783 99.8467 95.5838 99.8467 94.7095C99.8467 93.6414 100.209 92.8114 100.934 92.2192C101.665 91.6271 102.669 91.3311 103.947 91.3311ZM113.916 103.209C113.257 103.47 112.646 103.6 112.081 103.6C111.24 103.6 110.598 103.384 110.155 102.952C109.718 102.515 109.5 101.876 109.5 101.035V96.1372H107.972V94.7593H109.583L109.923 92.2607H111.102V94.7593H113.766V96.1372H111.102V100.777C111.102 101.275 111.198 101.632 111.392 101.848C111.591 102.064 111.918 102.172 112.372 102.172C112.77 102.172 113.185 102.1 113.617 101.956L113.916 103.209ZM118.389 94.6265C119.479 94.6265 120.317 94.9142 120.904 95.4897C121.496 96.0597 121.792 96.876 121.792 97.9385V103.5H120.563L120.331 102.479C119.479 103.27 118.521 103.666 117.459 103.666C116.585 103.666 115.89 103.431 115.375 102.96C114.861 102.49 114.604 101.859 114.604 101.068C114.604 100.149 114.98 99.4326 115.732 98.918C116.485 98.4033 117.542 98.146 118.903 98.146H120.19V97.9053C120.146 96.6602 119.507 96.0376 118.272 96.0376C117.896 96.0376 117.473 96.0957 117.002 96.2119C116.532 96.3226 116.059 96.4748 115.583 96.6685L115.143 95.3735C115.652 95.1356 116.189 94.953 116.753 94.8257C117.323 94.6929 117.868 94.6265 118.389 94.6265ZM119.003 99.3662C118.118 99.3662 117.429 99.5129 116.936 99.8062C116.444 100.094 116.197 100.498 116.197 101.018C116.197 101.417 116.333 101.724 116.604 101.939C116.875 102.15 117.254 102.255 117.741 102.255C118.206 102.255 118.66 102.158 119.103 101.964C119.545 101.765 119.908 101.5 120.19 101.167V99.3662H119.003ZM126.207 103.5L122.887 94.7593H124.472L125.593 97.8057L125.883 98.5859L126.971 101.632L127.328 100.562C127.383 100.39 127.505 100.025 127.693 99.4658C127.881 98.9014 128.077 98.348 128.282 97.8057L129.419 94.7593H131.013L126.157 107.509H124.713L126.207 103.5ZM141.08 91.3311C142.812 91.3311 144.154 91.8651 145.106 92.9331C146.058 93.9956 146.534 95.4953 146.534 97.4321C146.534 99.4354 146.063 100.977 145.123 102.056C144.182 103.129 142.834 103.666 141.08 103.666C139.315 103.666 137.959 103.132 137.013 102.064C136.072 100.99 135.602 99.4465 135.602 97.4321C135.602 95.4842 136.077 93.9818 137.029 92.9248C137.981 91.8623 139.331 91.3311 141.08 91.3311ZM141.08 92.8584C139.857 92.8584 138.922 93.2513 138.274 94.0371C137.627 94.8174 137.303 95.9491 137.303 97.4321C137.303 98.9484 137.63 100.113 138.283 100.927C138.936 101.735 139.868 102.139 141.08 102.139C142.292 102.139 143.219 101.732 143.861 100.918C144.508 100.099 144.832 98.9373 144.832 97.4321C144.832 95.9601 144.508 94.8312 143.861 94.0454C143.219 93.2541 142.292 92.8584 141.08 92.8584ZM149.978 95.9878C150.282 95.534 150.639 95.1909 151.048 94.9585C151.458 94.7261 151.906 94.6099 152.393 94.6099C152.72 94.6099 153.099 94.6707 153.53 94.7925L153.24 96.3613C152.686 96.2507 152.313 96.1925 152.119 96.187C151.632 96.187 151.228 96.2783 150.907 96.4609C150.592 96.6436 150.321 96.9396 150.094 97.3491V103.5H148.5V94.7593H149.778L149.978 95.9878ZM158.161 94.6929C158.549 94.6929 158.919 94.7482 159.273 94.8589C159.633 94.964 159.949 95.1134 160.22 95.3071L160.411 94.7593H161.73V103.741C161.73 104.908 161.357 105.827 160.61 106.497C159.863 107.172 158.845 107.509 157.555 107.509C156.908 107.509 156.28 107.429 155.671 107.269C155.068 107.114 154.534 106.895 154.069 106.613L154.667 105.334C155.076 105.561 155.555 105.744 156.103 105.882C156.65 106.026 157.168 106.098 157.655 106.098C158.446 106.098 159.058 105.896 159.489 105.492C159.921 105.094 160.137 104.521 160.137 103.774V102.512C159.445 103.259 158.612 103.633 157.638 103.633C156.415 103.633 155.469 103.254 154.799 102.496C154.13 101.737 153.795 100.661 153.795 99.2666C153.795 97.8167 154.174 96.6934 154.932 95.8965C155.69 95.0941 156.767 94.6929 158.161 94.6929ZM158.252 96.021C157.378 96.021 156.689 96.3115 156.186 96.8926C155.682 97.4681 155.43 98.2594 155.43 99.2666C155.43 100.207 155.629 100.935 156.028 101.45C156.432 101.964 157.002 102.222 157.738 102.222C158.302 102.222 158.798 102.067 159.224 101.757C159.65 101.447 159.954 101.018 160.137 100.47V96.5273C159.877 96.3669 159.578 96.2424 159.24 96.1538C158.908 96.0653 158.579 96.021 158.252 96.021ZM167.225 94.6265C168.315 94.6265 169.153 94.9142 169.74 95.4897C170.332 96.0597 170.628 96.876 170.628 97.9385V103.5H169.399L169.167 102.479C168.315 103.27 167.357 103.666 166.295 103.666C165.421 103.666 164.726 103.431 164.211 102.96C163.697 102.49 163.439 101.859 163.439 101.068C163.439 100.149 163.816 99.4326 164.568 98.918C165.321 98.4033 166.378 98.146 167.739 98.146H169.026V97.9053C168.982 96.6602 168.342 96.0376 167.108 96.0376C166.732 96.0376 166.309 96.0957 165.838 96.2119C165.368 96.3226 164.895 96.4748 164.419 96.6685L163.979 95.3735C164.488 95.1356 165.025 94.953 165.589 94.8257C166.159 94.6929 166.704 94.6265 167.225 94.6265ZM167.839 99.3662C166.953 99.3662 166.264 99.5129 165.772 99.8062C165.279 100.094 165.033 100.498 165.033 101.018C165.033 101.417 165.169 101.724 165.44 101.939C165.711 102.15 166.09 102.255 166.577 102.255C167.042 102.255 167.496 102.158 167.938 101.964C168.381 101.765 168.744 101.5 169.026 101.167V99.3662H167.839ZM174.429 95.9878C174.849 95.5229 175.311 95.1771 175.815 94.9502C176.319 94.7233 176.883 94.6099 177.508 94.6099C178.438 94.6099 179.149 94.8783 179.642 95.415C180.134 95.9518 180.38 96.7321 180.38 97.7559V103.5H178.778V97.8721C178.778 97.2246 178.646 96.7542 178.38 96.4609C178.114 96.1676 177.688 96.021 177.102 96.021C176.581 96.021 176.094 96.1372 175.641 96.3696C175.187 96.6021 174.822 96.923 174.545 97.3325V103.5H172.951V94.7593H174.246L174.429 95.9878ZM182.729 91.5303H184.322V93.1655H182.729V91.5303ZM182.729 94.7593H184.322V103.5H182.729V94.7593ZM192.506 94.7593V95.8467L187.982 102.089H192.688V103.5H185.973V102.363L190.464 96.1704H186.214V94.7593H192.506ZM195.286 99.416C195.33 100.324 195.573 101.018 196.016 101.5C196.459 101.981 197.081 102.222 197.884 102.222C198.326 102.222 198.753 102.175 199.162 102.081C199.577 101.986 200.048 101.826 200.573 101.599L201.08 102.786C200.476 103.079 199.912 103.295 199.386 103.434C198.861 103.566 198.332 103.633 197.801 103.633C196.484 103.633 195.463 103.237 194.738 102.446C194.013 101.654 193.65 100.545 193.65 99.1172C193.65 97.6895 194.007 96.5827 194.721 95.7969C195.435 95.0055 196.445 94.6099 197.751 94.6099C198.974 94.6099 199.884 94.9779 200.482 95.7139C201.085 96.4499 201.387 97.5649 201.387 99.0591V99.416H195.286ZM199.735 98.0796C199.691 97.3989 199.497 96.887 199.154 96.5439C198.816 96.1953 198.349 96.021 197.751 96.021C196.423 96.021 195.629 96.7072 195.369 98.0796H199.735ZM208.956 102.396C208.58 102.828 208.179 103.143 207.752 103.342C207.332 103.536 206.867 103.633 206.358 103.633C205.135 103.633 204.189 103.254 203.519 102.496C202.849 101.737 202.515 100.661 202.515 99.2666C202.515 97.8167 202.91 96.6795 203.702 95.855C204.499 95.0249 205.6 94.6099 207.005 94.6099C207.514 94.6099 208.132 94.6901 208.856 94.8506V90.75H210.45V103.483H209.18L208.956 102.396ZM206.458 102.222C207.016 102.222 207.503 102.072 207.918 101.773C208.339 101.475 208.652 101.054 208.856 100.512V96.2783C208.403 96.1676 208.062 96.0985 207.835 96.0708C207.609 96.0376 207.337 96.021 207.022 96.021C206.114 96.021 205.409 96.3088 204.905 96.8843C204.402 97.4543 204.15 98.2484 204.15 99.2666C204.15 100.207 204.349 100.935 204.748 101.45C205.152 101.964 205.722 102.222 206.458 102.222ZM212.724 101.798H214.317L212.807 105.592H211.786L212.724 101.798ZM229 102.77C228.446 103.03 227.818 103.237 227.115 103.392C226.412 103.542 225.737 103.616 225.09 103.616C223.275 103.616 221.889 103.088 220.931 102.031C219.974 100.968 219.495 99.4409 219.495 97.4487C219.495 96.1815 219.722 95.0885 220.176 94.1699C220.63 93.2513 221.283 92.5485 222.135 92.0615C222.993 91.5745 224.016 91.3311 225.206 91.3311C225.831 91.3311 226.462 91.4168 227.099 91.5884C227.741 91.7544 228.347 92.0007 228.917 92.3271L228.236 93.6553C227.694 93.3841 227.179 93.1849 226.692 93.0576C226.205 92.9248 225.71 92.8584 225.206 92.8584C223.928 92.8584 222.94 93.2568 222.243 94.0537C221.545 94.8451 221.197 95.9767 221.197 97.4487C221.197 98.9318 221.54 100.077 222.226 100.885C222.912 101.688 223.889 102.089 225.156 102.089C225.881 102.089 226.62 101.975 227.373 101.749V97.5151H229V102.77ZM232.053 99.416C232.097 100.324 232.341 101.018 232.784 101.5C233.226 101.981 233.849 102.222 234.651 102.222C235.094 102.222 235.52 102.175 235.93 102.081C236.345 101.986 236.815 101.826 237.341 101.599L237.847 102.786C237.244 103.079 236.68 103.295 236.154 103.434C235.628 103.566 235.1 103.633 234.568 103.633C233.251 103.633 232.23 103.237 231.505 102.446C230.78 101.654 230.418 100.545 230.418 99.1172C230.418 97.6895 230.775 96.5827 231.489 95.7969C232.203 95.0055 233.213 94.6099 234.519 94.6099C235.742 94.6099 236.652 94.9779 237.25 95.7139C237.853 96.4499 238.154 97.5649 238.154 99.0591V99.416H232.053ZM236.502 98.0796C236.458 97.3989 236.264 96.887 235.921 96.5439C235.584 96.1953 235.116 96.021 234.519 96.021C233.19 96.021 232.396 96.7072 232.136 98.0796H236.502ZM244.736 103.209C244.077 103.47 243.466 103.6 242.901 103.6C242.06 103.6 241.418 103.384 240.976 102.952C240.538 102.515 240.32 101.876 240.32 101.035V96.1372H238.792V94.7593H240.403L240.743 92.2607H241.922V94.7593H244.586V96.1372H241.922V100.777C241.922 101.275 242.019 101.632 242.212 101.848C242.412 102.064 242.738 102.172 243.192 102.172C243.59 102.172 244.005 102.1 244.437 101.956L244.736 103.209ZM260.638 93.4395C260.55 93.7438 260.356 94.3774 260.057 95.3403C259.764 96.3032 259.515 97.0724 259.31 97.6479L257.376 103.16H255.741L253.807 97.6479C253.58 97.0005 253.325 96.2119 253.043 95.2822C252.761 94.347 252.573 93.7327 252.479 93.4395L251.972 97.6479L251.242 103.5H249.689L251.225 91.4639H253.242L255.417 97.8223C255.483 98.0381 255.564 98.2816 255.658 98.5527C255.752 98.8239 255.849 99.12 255.948 99.4409C256.219 100.304 256.424 100.932 256.562 101.325C256.701 100.927 256.903 100.299 257.168 99.4409C257.268 99.1255 257.365 98.8322 257.459 98.561C257.553 98.2843 257.633 98.0381 257.7 97.8223L259.875 91.4639H261.9L263.427 103.5H261.883L261.153 97.6479L260.638 93.4395ZM268.88 94.5933C270.191 94.5933 271.21 94.9917 271.935 95.7886C272.66 96.5799 273.022 97.6895 273.022 99.1172C273.022 100.545 272.66 101.654 271.935 102.446C271.21 103.237 270.191 103.633 268.88 103.633C267.563 103.633 266.542 103.237 265.817 102.446C265.092 101.654 264.729 100.545 264.729 99.1172C264.729 97.6895 265.092 96.5799 265.817 95.7886C266.542 94.9917 267.563 94.5933 268.88 94.5933ZM268.88 96.0044C268.061 96.0044 267.436 96.27 267.004 96.8013C266.578 97.3325 266.365 98.1045 266.365 99.1172C266.365 100.124 266.578 100.894 267.004 101.425C267.436 101.956 268.061 102.222 268.88 102.222C269.693 102.222 270.316 101.956 270.748 101.425C271.179 100.894 271.395 100.124 271.395 99.1172C271.395 98.11 271.179 97.3408 270.748 96.8096C270.316 96.2728 269.693 96.0044 268.88 96.0044ZM276.383 95.9878C276.687 95.534 277.044 95.1909 277.454 94.9585C277.863 94.7261 278.311 94.6099 278.798 94.6099C279.125 94.6099 279.504 94.6707 279.936 94.7925L279.645 96.3613C279.092 96.2507 278.718 96.1925 278.524 96.187C278.037 96.187 277.633 96.2783 277.312 96.4609C276.997 96.6436 276.726 96.9396 276.499 97.3491V103.5H274.905V94.7593H276.184L276.383 95.9878ZM281.835 99.416C281.88 100.324 282.123 101.018 282.566 101.5C283.009 101.981 283.631 102.222 284.434 102.222C284.876 102.222 285.302 102.175 285.712 102.081C286.127 101.986 286.597 101.826 287.123 101.599L287.629 102.786C287.026 103.079 286.462 103.295 285.936 103.434C285.41 103.566 284.882 103.633 284.351 103.633C283.034 103.633 282.013 103.237 281.288 102.446C280.563 101.654 280.2 100.545 280.2 99.1172C280.2 97.6895 280.557 96.5827 281.271 95.7969C281.985 95.0055 282.995 94.6099 284.301 94.6099C285.524 94.6099 286.434 94.9779 287.032 95.7139C287.635 96.4499 287.937 97.5649 287.937 99.0591V99.416H281.835ZM286.285 98.0796C286.24 97.3989 286.047 96.887 285.704 96.5439C285.366 96.1953 284.898 96.021 284.301 96.021C282.973 96.021 282.179 96.7072 281.918 98.0796H286.285ZM297.804 91.4639C299.675 91.4639 301.105 91.9785 302.096 93.0078C303.092 94.0316 303.59 95.5119 303.59 97.4487C303.59 99.3856 303.086 100.88 302.079 101.931C301.077 102.977 299.653 103.5 297.804 103.5H293.911V91.4639H297.804ZM297.804 102.056C299.132 102.056 300.145 101.666 300.842 100.885C301.54 100.099 301.888 98.9539 301.888 97.4487C301.888 95.9657 301.542 94.8395 300.851 94.0703C300.159 93.2956 299.143 92.9082 297.804 92.9082H295.546V102.056H297.804ZM309.034 94.5933C310.346 94.5933 311.364 94.9917 312.089 95.7886C312.814 96.5799 313.176 97.6895 313.176 99.1172C313.176 100.545 312.814 101.654 312.089 102.446C311.364 103.237 310.346 103.633 309.034 103.633C307.717 103.633 306.696 103.237 305.971 102.446C305.246 101.654 304.884 100.545 304.884 99.1172C304.884 97.6895 305.246 96.5799 305.971 95.7886C306.696 94.9917 307.717 94.5933 309.034 94.5933ZM309.034 96.0044C308.215 96.0044 307.59 96.27 307.158 96.8013C306.732 97.3325 306.519 98.1045 306.519 99.1172C306.519 100.124 306.732 100.894 307.158 101.425C307.59 101.956 308.215 102.222 309.034 102.222C309.848 102.222 310.47 101.956 310.902 101.425C311.333 100.894 311.549 100.124 311.549 99.1172C311.549 98.11 311.333 97.3408 310.902 96.8096C310.47 96.2728 309.848 96.0044 309.034 96.0044ZM316.537 95.9878C316.958 95.5229 317.42 95.1771 317.923 94.9502C318.427 94.7233 318.991 94.6099 319.617 94.6099C320.546 94.6099 321.257 94.8783 321.75 95.415C322.243 95.9518 322.489 96.7321 322.489 97.7559V103.5H320.887V97.8721C320.887 97.2246 320.754 96.7542 320.488 96.4609C320.223 96.1676 319.797 96.021 319.21 96.021C318.69 96.021 318.203 96.1372 317.749 96.3696C317.295 96.6021 316.93 96.923 316.653 97.3325V103.5H315.06V94.7593H316.354L316.537 95.9878ZM325.808 99.416C325.852 100.324 326.096 101.018 326.539 101.5C326.981 101.981 327.604 102.222 328.406 102.222C328.849 102.222 329.275 102.175 329.685 102.081C330.1 101.986 330.57 101.826 331.096 101.599L331.602 102.786C330.999 103.079 330.434 103.295 329.909 103.434C329.383 103.566 328.854 103.633 328.323 103.633C327.006 103.633 325.985 103.237 325.26 102.446C324.535 101.654 324.173 100.545 324.173 99.1172C324.173 97.6895 324.53 96.5827 325.244 95.7969C325.958 95.0055 326.967 94.6099 328.273 94.6099C329.496 94.6099 330.407 94.9779 331.004 95.7139C331.608 96.4499 331.909 97.5649 331.909 99.0591V99.416H325.808ZM330.257 98.0796C330.213 97.3989 330.019 96.887 329.676 96.5439C329.339 96.1953 328.871 96.021 328.273 96.021C326.945 96.021 326.151 96.7072 325.891 98.0796H330.257ZM333.552 91.2563H335.179L334.955 100.371H333.751L333.552 91.2563ZM333.585 101.939H335.162V103.5H333.585V101.939Z" fill="white"/>
</svg>
